<?xml version="1.0" encoding="UTF-8"?>
<svg version="1.1" xmlns="http://www.w3.org/2000/svg" width="2048" height="2048">
<path d="M0 0 C1.07611334 -0.00202347 2.15222669 -0.00404694 3.26094953 -0.00613173 C6.88076976 -0.01171392 10.50055202 -0.01018268 14.12037575 -0.0087052 C16.74747652 -0.01126478 19.37457419 -0.01421849 22.0016737 -0.01764891 C27.73877358 -0.02433662 33.47586615 -0.02730357 39.21296977 -0.02785336 C47.80202378 -0.02868793 56.39106707 -0.03521015 64.98011742 -0.04281633 C79.61880066 -0.05559925 94.25748304 -0.06354879 108.89617074 -0.06885248 C123.7348186 -0.07423288 138.57346308 -0.08172047 153.41210854 -0.09176546 C154.34884058 -0.09239704 155.28557261 -0.09302861 156.25069047 -0.09367933 C160.06581773 -0.09625441 163.88094498 -0.09883801 167.69607223 -0.10143418 C217.18648069 -0.13504021 266.67689271 -0.15554267 316.16730881 -0.17387416 C326.8749386 -0.17785145 337.5825683 -0.18203717 348.29019801 -0.18622956 C427.98509304 -0.21739304 507.67998913 -0.2444705 587.37488859 -0.26117634 C605.85256676 -0.26506298 624.33024489 -0.26908311 642.80792302 -0.27316059 C645.1273596 -0.27367145 647.44679617 -0.27418018 649.76623275 -0.27468678 C724.2193878 -0.29094865 798.67251033 -0.32792857 873.12564931 -0.37884058 C926.61914046 -0.41541007 980.11262478 -0.44910801 1033.60612786 -0.4613896 C1035.25747277 -0.46177074 1035.25747277 -0.46177074 1036.94217819 -0.46215957 C1061.11390221 -0.46767687 1085.28562621 -0.47151691 1109.45735074 -0.47378505 C1119.18416951 -0.47472297 1128.91098826 -0.47587911 1138.63780701 -0.47709948 C1139.70232245 -0.477227 1140.76683788 -0.47735452 1141.86361136 -0.47748591 C1176.11214739 -0.48168913 1210.36063981 -0.5044408 1244.60915981 -0.53685441 C1279.12732113 -0.56942056 1313.64543501 -0.58293997 1348.16361102 -0.57046021 C1352.94262699 -0.56873579 1357.72164302 -0.56722292 1362.50065911 -0.56583697 C1363.43740783 -0.56555736 1364.37415655 -0.56527775 1365.3392916 -0.56498967 C1380.1216457 -0.56112676 1394.90390544 -0.57734748 1409.6862364 -0.60211688 C1424.25214294 -0.62610258 1438.81792287 -0.62838569 1453.38383648 -0.60821255 C1461.16320391 -0.59801924 1468.94227874 -0.59701108 1476.72161447 -0.62387537 C1535.37910891 -0.81712599 1535.37910891 -0.81712599 1564.16459763 6.1311025 C1566.94966648 6.73694732 1569.73800479 7.3248149 1572.52730899 7.91075233 C1575.4534321 8.53640449 1578.31978073 9.19837565 1581.16459763 10.1311025 C1581.49459763 10.7911025 1581.82459763 11.4511025 1582.16459763 12.1311025 C1584.15582362 12.51337225 1586.15816175 12.83899609 1588.16459763 13.1311025 C1610.1462654 19.16147154 1630.32657203 31.25327185 1650.16459763 42.1311025 C1650.16459763 42.7911025 1650.16459763 43.4511025 1650.16459763 44.1311025 C1653.62959763 44.6261025 1653.62959763 44.6261025 1657.16459763 45.1311025 C1657.16459763 46.1211025 1657.16459763 47.1111025 1657.16459763 48.1311025 C1657.82459763 48.1311025 1658.48459763 48.1311025 1659.16459763 48.1311025 C1659.16459763 48.7911025 1659.16459763 49.4511025 1659.16459763 50.1311025 C1660.15459763 50.1311025 1661.14459763 50.1311025 1662.16459763 50.1311025 C1662.16459763 50.7911025 1662.16459763 51.4511025 1662.16459763 52.1311025 C1664.49673911 53.33738258 1666.66101902 54.2965763 1669.16459763 55.1311025 C1669.16459763 55.7911025 1669.16459763 56.4511025 1669.16459763 57.1311025 C1669.82459763 57.1311025 1670.48459763 57.1311025 1671.16459763 57.1311025 C1671.16459763 57.7911025 1671.16459763 58.4511025 1671.16459763 59.1311025 C1671.90709763 59.3992275 1672.64959763 59.6673525 1673.41459763 59.9436025 C1676.05521712 61.08387001 1678.02012607 62.22490556 1680.16459763 64.1311025 C1680.16459763 64.7911025 1680.16459763 65.4511025 1680.16459763 66.1311025 C1681.15459763 66.1311025 1682.14459763 66.1311025 1683.16459763 66.1311025 C1684.54328044 67.76045491 1685.87733856 69.42859857 1687.16459763 71.1311025 C1687.82459763 71.4611025 1688.48459763 71.7911025 1689.16459763 72.1311025 C1689.16459763 72.7911025 1689.16459763 73.4511025 1689.16459763 74.1311025 C1689.98637497 74.46174703 1689.98637497 74.46174703 1690.82475388 74.79907125 C1693.90008757 76.54980379 1696.16618484 78.92057316 1698.60209763 81.4436025 C1699.06680466 81.91733297 1699.53151169 82.39106344 1700.01030076 82.87914938 C1701.39782521 84.29376636 1702.7812327 85.71241762 1704.16459763 87.1311025 C1705.10432419 88.03215719 1706.04405076 88.93321188 1707.01225388 89.86157125 C1709.16459763 92.1311025 1709.16459763 92.1311025 1709.16459763 94.1311025 C1709.92772263 94.3579775 1710.69084763 94.5848525 1711.47709763 94.8186025 C1714.71196064 96.39841932 1715.58101121 97.96392967 1717.16459763 101.1311025 C1717.82459763 100.8011025 1718.48459763 100.4711025 1719.16459763 100.1311025 C1719.16459763 101.4511025 1719.16459763 102.7711025 1719.16459763 104.1311025 C1720.14213407 105.15307242 1721.14518573 106.15089876 1722.16459763 107.1311025 C1722.49459763 107.9973525 1722.82459763 108.8636025 1723.16459763 109.7561025 C1723.49459763 110.5398525 1723.82459763 111.3236025 1724.16459763 112.1311025 C1725.15459763 112.4611025 1726.14459763 112.7911025 1727.16459763 113.1311025 C1727.16459763 113.7911025 1727.16459763 114.4511025 1727.16459763 115.1311025 C1727.82459763 115.4611025 1728.48459763 115.7911025 1729.16459763 116.1311025 C1732.4628062 119.75913193 1734.38570252 122.5568008 1736.16459763 127.1311025 C1737.15459763 127.7911025 1738.14459763 128.4511025 1739.16459763 129.1311025 C1739.84146863 130.72174936 1740.51182053 132.31555906 1741.14506638 133.92407125 C1743.79908195 139.66935401 1747.66121693 144.87603145 1751.16459763 150.1311025 C1751.16459763 151.4511025 1751.16459763 152.7711025 1751.16459763 154.1311025 C1752.48459763 154.4611025 1753.80459763 154.7911025 1755.16459763 155.1311025 C1755.49459763 157.1111025 1755.82459763 159.0911025 1756.16459763 161.1311025 C1756.49459763 161.1311025 1756.82459763 161.1311025 1757.16459763 161.1311025 C1757.55522263 162.95401917 1757.94584763 164.77693584 1758.33647263 166.5998525 C1759.16287938 169.35577983 1759.16287938 169.35577983 1760.96147263 172.5998525 C1763.83536638 178.21190659 1765.70314498 184.15266808 1767.66459763 190.1311025 C1768.05969529 191.32558004 1768.45479294 192.52005758 1768.86186326 193.75073141 C1773.23640109 207.14820694 1776.43444594 220.54508726 1778.72709763 234.4436025 C1778.86567185 235.27955953 1779.00424607 236.11551656 1779.14701951 236.97680563 C1779.48695088 239.02811565 1779.82587481 241.07959257 1780.16459763 243.1311025 C1780.49459763 243.1311025 1780.82459763 243.1311025 1781.16459763 243.1311025 C1781.17009804 291.62516172 1781.17536751 340.11922097 1781.18046677 388.61328024 C1781.18061647 390.0366158 1781.18061647 390.0366158 1781.18076919 391.48870563 C1781.19145308 493.13106553 1781.20067708 594.77342545 1781.20694077 696.41578573 C1781.20708022 698.67265032 1781.20721967 700.92951492 1781.20735912 703.18637951 C1781.21028159 750.55495774 1781.21299833 797.92353599 1781.21547731 845.29211424 C1781.21672274 869.08569599 1781.21800771 892.87927773 1781.21933007 916.67285948 C1781.21952932 920.26210897 1781.21972744 923.85135847 1781.21992551 927.44060797 C1781.22298674 982.73262194 1781.22689791 1038.02463568 1781.23326218 1093.31664938 C1781.23346753 1095.10090048 1781.23346753 1095.10090048 1781.23367703 1096.92119705 C1781.23588949 1116.10037959 1781.23817307 1135.27956212 1781.24046607 1154.45874465 C1781.24706677 1209.67746003 1781.25314469 1264.89617525 1781.25573742 1320.11489099 C1781.25579096 1321.2495923 1781.25584449 1322.3842936 1781.25589965 1323.55337979 C1781.25706521 1348.45836842 1781.25796016 1373.36335706 1781.25859861 1398.26834572 C1781.25886025 1408.28814529 1781.25916087 1418.30794486 1781.25947487 1428.32774442 C1781.2595083 1429.4243914 1781.25954173 1430.52103838 1781.25957617 1431.65091708 C1781.26067394 1467.0285125 1781.26494948 1502.40610665 1781.27087984 1537.78370156 C1781.27683561 1573.39922874 1781.27969936 1609.0147547 1781.27822162 1644.63028239 C1781.27801852 1649.54409056 1781.27785114 1654.45789873 1781.27770531 1659.3717069 C1781.27767543 1660.33501297 1781.27764555 1661.29831904 1781.27761476 1662.2908162 C1781.27723307 1677.5876383 1781.28022772 1692.88445783 1781.28460749 1708.18127923 C1781.28883816 1723.19693986 1781.28954834 1738.21259714 1781.28642944 1753.22825809 C1781.28470582 1762.04834075 1781.28576699 1770.86841285 1781.29081463 1779.68849429 C1781.29388891 1785.5304558 1781.29340292 1791.37240966 1781.2898987 1797.21437091 C1781.28800958 1800.53616585 1781.28828918 1803.85793575 1781.29183288 1807.17972996 C1781.29538824 1810.73445201 1781.29291905 1814.28911749 1781.28879613 1817.84383762 C1781.29255944 1819.40744898 1781.29255944 1819.40744898 1781.29639879 1821.00264844 C1781.29404589 1821.93791921 1781.29169299 1822.87318997 1781.2892688 1823.83680227 C1781.28936481 1825.05411142 1781.28936481 1825.05411142 1781.28946275 1826.29601268 C1781.16459763 1828.1311025 1781.16459763 1828.1311025 1780.16459763 1829.1311025 C1779.56724603 1832.14849392 1779.01394784 1835.16535562 1778.47709763 1838.1936025 C1774.65619013 1858.65848147 1769.33619542 1877.60314576 1761.10087693 1896.76293844 C1760.26401925 1898.87963191 1759.65201798 1900.91152453 1759.16459763 1903.1311025 C1758.50459763 1903.1311025 1757.84459763 1903.1311025 1757.16459763 1903.1311025 C1756.87584763 1904.1829775 1756.58709763 1905.2348525 1756.28959763 1906.3186025 C1755.38913108 1909.37018359 1754.5176953 1912.25576995 1753.16459763 1915.1311025 C1752.50459763 1915.4611025 1751.84459763 1915.7911025 1751.16459763 1916.1311025 C1751.16459763 1917.1211025 1751.16459763 1918.1111025 1751.16459763 1919.1311025 C1750.50459763 1919.1311025 1749.84459763 1919.1311025 1749.16459763 1919.1311025 C1748.91709763 1919.82204 1748.66959763 1920.5129775 1748.41459763 1921.2248525 C1746.97117009 1924.58082154 1745.14776176 1927.57761177 1743.16459763 1930.6311025 C1742.77449509 1931.23623678 1742.38439255 1931.84137106 1741.98246872 1932.46484274 C1738.37856161 1937.96783607 1734.41862127 1943.14310132 1730.32866013 1948.29125875 C1728.12777108 1951.05616669 1728.12777108 1951.05616669 1726.50053513 1954.00219625 C1726.05967576 1954.70473531 1725.61881638 1955.40727438 1725.16459763 1956.1311025 C1724.50459763 1956.1311025 1723.84459763 1956.1311025 1723.16459763 1956.1311025 C1723.16459763 1957.1211025 1723.16459763 1958.1111025 1723.16459763 1959.1311025 C1722.50459763 1959.1311025 1721.84459763 1959.1311025 1721.16459763 1959.1311025 C1721.16459763 1959.7911025 1721.16459763 1960.4511025 1721.16459763 1961.1311025 C1719.28959763 1963.2561025 1719.28959763 1963.2561025 1717.16459763 1965.1311025 C1716.50459763 1965.1311025 1715.84459763 1965.1311025 1715.16459763 1965.1311025 C1715.16459763 1965.7911025 1715.16459763 1966.4511025 1715.16459763 1967.1311025 C1714.50459763 1967.1311025 1713.84459763 1967.1311025 1713.16459763 1967.1311025 C1712.91709763 1967.8736025 1712.66959763 1968.6161025 1712.41459763 1969.3811025 C1711.05994724 1972.36133337 1709.65444353 1974.03029502 1707.16459763 1976.1311025 C1706.50459763 1976.1311025 1705.84459763 1976.1311025 1705.16459763 1976.1311025 C1704.83459763 1977.1211025 1704.50459763 1978.1111025 1704.16459763 1979.1311025 C1702.53246006 1980.61121319 1700.83369574 1982.01868969 1699.10209763 1983.3811025 C1695.68915798 1986.09913949 1692.33574981 1988.8272618 1689.10209763 1991.7561025 C1685.41340218 1995.03324929 1681.45611145 1997.80336638 1677.36381638 2000.5529775 C1675.4071458 2001.95705373 1673.84248251 2003.41887495 1672.16459763 2005.1311025 C1670.8393926 2005.81378388 1669.50647581 2006.48180661 1668.16459763 2007.1311025 C1667.50459763 2007.7911025 1666.84459763 2008.4511025 1666.16459763 2009.1311025 C1664.60074153 2010.04045587 1663.01327651 2010.90946487 1661.41459763 2011.7561025 C1657.06498506 2014.08342767 1652.79451783 2016.5101447 1648.53959763 2019.0061025 C1637.87657366 2025.16412497 1626.77445681 2030.64964465 1614.97319138 2034.24438375 C1612.71841157 2034.95625443 1610.54494301 2035.73683638 1608.34037888 2036.5842275 C1604.25245681 2038.13276296 1600.12591146 2039.40175532 1595.91459763 2040.5686025 C1595.15679001 2040.77960592 1594.3989824 2040.99060934 1593.61821091 2041.2080068 C1584.56726262 2043.65911339 1575.37723328 2045.40974365 1566.16459763 2047.1311025 C1566.16459763 2047.4611025 1566.16459763 2047.7911025 1566.16459763 2048.1311025 C1032.55459763 2048.1311025 498.94459763 2048.1311025 -50.83540237 2048.1311025 C-50.83540237 2047.8011025 -50.83540237 2047.4711025 -50.83540237 2047.1311025 C-51.92703689 2046.91345236 -51.92703689 2046.91345236 -53.04072464 2046.69140524 C-68.8518205 2043.50635595 -84.30281188 2039.87599339 -99.63911331 2034.84789938 C-101.55292954 2034.22329239 -103.47850189 2033.63493678 -105.40571487 2033.0529775 C-107.83540237 2032.1311025 -107.83540237 2032.1311025 -108.83540237 2030.1311025 C-109.52505081 2030.00090719 -110.21469924 2029.87071188 -110.92524612 2029.73657125 C-114.74804849 2028.94122311 -117.96060222 2027.22639358 -121.39790237 2025.4436025 C-122.81584048 2024.72088613 -124.23380956 2023.99823053 -125.65180862 2023.27563375 C-126.35321975 2022.91550192 -127.05463089 2022.55537008 -127.7772969 2022.18432516 C-130.78589905 2020.64469174 -133.81038071 2019.13821793 -136.83540237 2017.6311025 C-138.50206904 2016.79776917 -140.1687357 2015.96443584 -141.83540237 2015.1311025 C-141.83540237 2014.4711025 -141.83540237 2013.8111025 -141.83540237 2013.1311025 C-142.51602737 2012.8836025 -143.19665237 2012.6361025 -143.89790237 2012.3811025 C-147.40705383 2010.88784656 -150.53751426 2009.04987376 -153.83540237 2007.1311025 C-154.88727737 2006.66704 -154.88727737 2006.66704 -155.96040237 2006.1936025 C-157.83540237 2005.1311025 -157.83540237 2005.1311025 -160.01899612 2002.9123525 C-163.10450374 1999.86536023 -166.35235303 1997.22330226 -169.77290237 1994.5686025 C-170.36780471 1994.10002828 -170.96270706 1993.63145406 -171.57563674 1993.14868063 C-175.22477543 1990.29716788 -178.97773288 1987.69726692 -182.83540237 1985.1311025 C-184.83540237 1983.1311025 -184.83540237 1983.1311025 -187.21040237 1980.2561025 C-190.66585489 1976.189366 -194.43884133 1972.46929281 -198.25678909 1968.74682516 C-205.47721162 1961.65019491 -211.64315616 1953.89387796 -217.64790237 1945.7561025 C-218.96549095 1943.97640314 -220.28443586 1942.19770689 -221.60493362 1940.420165 C-222.17832473 1939.64366598 -222.75171585 1938.86716696 -223.34248245 1938.06713766 C-224.83514388 1936.04591981 -224.83514388 1936.04591981 -226.83540237 1934.1311025 C-227.73827657 1932.32535411 -228.63701115 1930.51745785 -229.51899612 1928.701415 C-231.08053504 1925.65247551 -232.7964263 1922.7147951 -234.52290237 1919.7561025 C-237.81090097 1914.07647447 -240.87608561 1908.30101283 -243.83540237 1902.4436025 C-244.43227859 1901.27595358 -244.43227859 1901.27595358 -245.04121292 1900.08471578 C-245.40642044 1899.35365621 -245.77162796 1898.62259664 -246.14790237 1897.86938375 C-246.47403518 1897.22009908 -246.80016799 1896.57081442 -247.13618362 1895.90185446 C-247.83540237 1894.1311025 -247.83540237 1894.1311025 -247.83540237 1891.1311025 C-248.49540237 1890.8011025 -249.15540237 1890.4711025 -249.83540237 1890.1311025 C-250.70161331 1888.13525289 -250.70161331 1888.13525289 -251.56977737 1885.47875875 C-252.05571365 1883.99218771 -252.05571365 1883.99218771 -252.55146682 1882.47558492 C-252.89266555 1881.39253073 -253.23386428 1880.30947653 -253.58540237 1879.1936025 C-253.93884719 1878.07638815 -254.29229202 1876.95917379 -254.65644729 1875.80810446 C-257.10895531 1867.87579978 -259.26078928 1859.9035272 -261.14790237 1851.8186025 C-261.37767776 1850.84479635 -261.60745315 1849.8709902 -261.84419143 1848.86767477 C-262.56976858 1845.63152633 -263.21046839 1842.38832423 -263.83540237 1839.1311025 C-263.96136347 1838.47484901 -264.08732457 1837.81859552 -264.21710267 1837.14245556 C-266.99708707 1822.16640269 -267.26107335 1807.47318925 -267.22130573 1792.27708143 C-267.22535191 1789.58993855 -267.23058511 1786.90282117 -267.23724243 1784.21568584 C-267.24931827 1778.38421706 -267.25041994 1772.55282862 -267.2441246 1766.72135191 C-267.23475202 1757.9912234 -267.24277712 1749.26116781 -267.25402072 1740.53104457 C-267.27267776 1725.64733349 -267.27714561 1710.76364861 -267.27376831 1695.87992758 C-267.27039061 1680.80443 -267.27351226 1665.72895463 -267.2844857 1650.65346044 C-267.28517466 1649.6999157 -267.28586362 1648.74637095 -267.28657345 1647.76393091 C-267.2893985 1643.88001861 -267.29226557 1639.99610635 -267.29518702 1636.11219412 C-267.32559306 1595.62949676 -267.334804 1555.14681187 -267.33656336 1514.66410439 C-267.33675761 1510.30876296 -267.33696142 1505.95342153 -267.33717358 1501.5980801 C-267.33722459 1500.51724046 -267.33727561 1499.43640082 -267.33732817 1498.32280846 C-267.33855443 1474.35325758 -267.34512711 1450.38370908 -267.35264112 1426.41415946 C-267.35572628 1416.5389231 -267.3586964 1406.6636867 -267.36168987 1396.7884503 C-267.36202163 1395.69725911 -267.3623534 1394.60606792 -267.36269522 1393.48181033 C-267.3816638 1330.9627571 -267.39404298 1268.44370543 -267.39266956 1205.92464918 C-267.39262222 1203.58571267 -267.39257502 1201.24677617 -267.39252793 1198.90783966 C-267.39230779 1188.34815928 -267.39204328 1177.7884789 -267.39176628 1167.22879852 C-267.39164291 1162.52014618 -267.39152247 1157.81149384 -267.39140234 1153.1028415 C-267.39134115 1150.74607765 -267.39127809 1148.38931379 -267.39121316 1146.03254994 C-267.38917295 1071.52811039 -267.41111681 997.02371365 -267.45283401 922.5192861 C-267.46333755 903.75044607 -267.47374614 884.981606 -267.4836272 866.21276563 C-267.48423582 865.05700662 -267.48484444 863.9012476 -267.48547151 862.71046558 C-267.50412526 827.07167195 -267.5154149 791.43288184 -267.51920116 755.79408354 C-267.51932101 754.67466215 -267.51944086 753.55524076 -267.51956435 752.40189752 C-267.52212455 727.82418216 -267.52290764 703.24646702 -267.52205322 678.66875155 C-267.52176378 669.8736588 -267.52160764 661.07856605 -267.52151703 652.2834733 C-267.52149329 650.09557744 -267.52146267 647.90768157 -267.52142516 645.71978571 C-267.52089687 610.90235701 -267.53796298 576.08496503 -267.56388661 541.26754684 C-267.58987523 506.1844194 -267.59637703 471.10134269 -267.57660264 436.01820966 C-267.57386607 431.16159301 -267.57133616 426.30497626 -267.5689286 421.44835943 C-267.56820821 420.02042854 -267.56820821 420.02042854 -267.56747326 418.56365056 C-267.56043671 403.54000084 -267.57343477 388.51643936 -267.59494216 373.49280622 C-267.61570795 358.69044211 -267.61477507 343.88820724 -267.59136575 329.08584579 C-267.57944056 321.18003479 -267.57669049 313.27450873 -267.6017378 305.36872058 C-267.78401032 244.76742433 -267.78401032 244.76742433 -260.83540237 217.1311025 C-260.53288868 215.88220562 -260.23037498 214.63330873 -259.91869421 213.34656648 C-257.08154459 201.67858501 -253.91568132 190.31552309 -249.17915237 179.26782125 C-247.52473044 175.4059003 -246.14831123 171.47305451 -244.79243362 167.49829 C-243.72376486 164.85497054 -242.31989178 162.56063571 -240.83540237 160.1311025 C-240.13960783 157.93979716 -240.13960783 157.93979716 -239.83540237 156.1311025 C-239.17540237 156.1311025 -238.51540237 156.1311025 -237.83540237 156.1311025 C-237.71294143 155.55875875 -237.59048049 154.986415 -237.46430862 154.3967275 C-236.80777368 152.03157059 -235.89816725 150.05903453 -234.77290237 147.8811025 C-234.41067581 147.17469625 -234.04844924 146.46829 -233.67524612 145.7404775 C-233.39809768 145.20938375 -233.12094924 144.67829 -232.83540237 144.1311025 C-232.17540237 144.1311025 -231.51540237 144.1311025 -230.83540237 144.1311025 C-230.69425003 143.33446188 -230.69425003 143.33446188 -230.55024612 142.5217275 C-229.60094617 139.34701949 -228.06091514 136.74383551 -226.39790237 133.8811025 C-225.78044143 132.80344625 -225.16298049 131.72579 -224.52680862 130.6154775 C-223.96864456 129.79563375 -223.41048049 128.97579 -222.83540237 128.1311025 C-222.17540237 128.1311025 -221.51540237 128.1311025 -220.83540237 128.1311025 C-220.54665237 127.2029775 -220.25790237 126.2748525 -219.96040237 125.3186025 C-218.83540237 122.1311025 -218.83540237 122.1311025 -216.83540237 119.1311025 C-216.17540237 119.1311025 -215.51540237 119.1311025 -214.83540237 119.1311025 C-214.83540237 118.1411025 -214.83540237 117.1511025 -214.83540237 116.1311025 C-214.17540237 116.1311025 -213.51540237 116.1311025 -212.83540237 116.1311025 C-212.46415237 115.0173525 -212.46415237 115.0173525 -212.08540237 113.8811025 C-210.74037625 110.92204503 -209.107467 109.40316713 -206.83540237 107.1311025 C-206.83540237 106.1411025 -206.83540237 105.1511025 -206.83540237 104.1311025 C-204.85540237 103.1411025 -204.85540237 103.1411025 -202.83540237 102.1311025 C-202.83540237 101.4711025 -202.83540237 100.8111025 -202.83540237 100.1311025 C-202.17540237 100.1311025 -201.51540237 100.1311025 -200.83540237 100.1311025 C-200.46415237 99.2648525 -200.46415237 99.2648525 -200.08540237 98.3811025 C-198.65240248 95.80170271 -197.0511556 94.06988658 -194.83540237 92.1311025 C-194.17540237 92.1311025 -193.51540237 92.1311025 -192.83540237 92.1311025 C-192.83540237 91.4711025 -192.83540237 90.8111025 -192.83540237 90.1311025 C-192.17540237 90.1311025 -191.51540237 90.1311025 -190.83540237 90.1311025 C-190.43321487 89.233915 -190.43321487 89.233915 -190.02290237 88.3186025 C-188.83622831 86.13262397 -187.73941124 84.71777656 -185.83540237 83.1311025 C-185.17540237 83.1311025 -184.51540237 83.1311025 -183.83540237 83.1311025 C-183.75290237 82.5329775 -183.67040237 81.9348525 -183.58540237 81.3186025 C-182.61963458 78.50177978 -181.3467167 77.65311119 -178.83540237 76.1311025 C-178.17540237 76.1311025 -177.51540237 76.1311025 -176.83540237 76.1311025 C-176.34040237 74.6461025 -176.34040237 74.6461025 -175.83540237 73.1311025 C-171.51722055 68.35837523 -171.51722055 68.35837523 -167.83540237 67.1311025 C-166.84540237 65.6461025 -166.84540237 65.6461025 -165.83540237 64.1311025 C-164.84540237 64.1311025 -163.85540237 64.1311025 -162.83540237 64.1311025 C-162.17540237 62.8111025 -161.51540237 61.4911025 -160.83540237 60.1311025 C-160.17540237 60.1311025 -159.51540237 60.1311025 -158.83540237 60.1311025 C-158.83540237 59.4711025 -158.83540237 58.8111025 -158.83540237 58.1311025 C-157.84540237 57.8011025 -156.85540237 57.4711025 -155.83540237 57.1311025 C-154.71020948 56.00590962 -153.59584229 54.86872717 -152.52290237 53.6936025 C-150.46193461 51.78529902 -148.27258233 50.52377677 -145.83540237 49.1311025 C-144.94852737 48.5742275 -144.06165237 48.0173525 -143.14790237 47.4436025 C-140.83540237 46.1311025 -140.83540237 46.1311025 -138.83540237 46.1311025 C-138.83540237 45.4711025 -138.83540237 44.8111025 -138.83540237 44.1311025 C-138.17540237 44.1311025 -137.51540237 44.1311025 -136.83540237 44.1311025 C-136.50540237 43.4711025 -136.17540237 42.8111025 -135.83540237 42.1311025 C-135.17540237 42.4611025 -134.51540237 42.7911025 -133.83540237 43.1311025 C-133.83540237 42.4711025 -133.83540237 41.8111025 -133.83540237 41.1311025 C-130.92847563 39.64383766 -128.07953088 38.22332883 -125.02290237 37.0686025 C-122.67024668 36.33907633 -122.67024668 36.33907633 -121.83540237 34.1311025 C-119.2279127 32.73110805 -116.62597369 31.41057674 -113.96040237 30.1311025 C-112.50380227 29.42456186 -111.04804016 28.71629044 -109.59321487 28.0061025 C-108.94497756 27.69414938 -108.29674026 27.38219625 -107.6288594 27.06079 C-105.58203508 26.04130405 -105.58203508 26.04130405 -102.83540237 24.1311025 C-101.51540237 24.1311025 -100.19540237 24.1311025 -98.83540237 24.1311025 C-98.83540237 23.4711025 -98.83540237 22.8111025 -98.83540237 22.1311025 C-98.13415237 21.87715719 -97.43290237 21.62321188 -96.71040237 21.36157125 C-90.38265078 19.06850842 -90.38265078 19.06850842 -84.08540237 16.6936025 C-62.84008426 8.7853855 -41.265431 4.2680627 -18.83540237 1.1311025 C-17.67969141 0.96052829 -16.52398045 0.78995408 -15.33324795 0.61421096 C-10.22154307 -0.01704141 -5.14444435 -0.0093367 0 0 Z " fill="#3D39CE" transform="translate(266.8354023694992,-0.13110250234603882)"/>
<path d="M0 0 C9.02252539 7.30010686 16.84682274 16.24122095 24.89990234 24.56958008 C27.35861307 27.10631509 29.83218905 29.62778175 32.30786133 32.14794922 C33.43912697 33.33204124 33.43912697 33.33204124 34.59324646 34.54005432 C35.29820755 35.25507614 36.00316864 35.97009796 36.72949219 36.70678711 C37.34473251 37.34217911 37.95997284 37.97757111 38.59385681 38.63221741 C40.330151 40.09495454 40.330151 40.09495454 42.48243713 39.65306091 C45.07069734 38.58944494 47.21816194 37.12444761 49.53051758 35.55029297 C64.19977812 26.07437698 81.41569184 22.60751333 98.60864258 25.89208984 C121.11463746 30.76973802 135.16422362 46.41339604 150.91552734 62.07763672 C152.36811114 63.51865718 153.82516198 64.95518855 155.28662109 66.38720703 C172.95660306 83.70351274 185.98733653 101.02620755 186.78051758 126.92529297 C186.34555377 141.01433806 182.05531785 154.72709212 173.44458008 165.92529297 C172.19156961 167.8116656 172.19156961 167.8116656 172.67504883 169.97216797 C173.46339582 172.01259548 174.37277796 173.93501235 175.40551758 175.86279297 C176.06551758 175.86279297 176.72551758 175.86279297 177.40551758 175.86279297 C177.40551758 176.52279297 177.40551758 177.18279297 177.40551758 177.86279297 C178.06551758 177.86279297 178.72551758 177.86279297 179.40551758 177.86279297 C180.81567383 179.33154297 180.81567383 179.33154297 182.46801758 181.36279297 C185.8825512 185.41124844 189.62892146 188.80127168 193.68286133 192.19873047 C194.53557617 193.02244141 194.53557617 193.02244141 195.40551758 193.86279297 C195.40551758 194.52279297 195.40551758 195.18279297 195.40551758 195.86279297 C195.99848633 196.12060547 196.59145508 196.37841797 197.20239258 196.64404297 C201.12929405 198.81637144 203.57336567 202.44805991 206.40551758 205.86279297 C207.04875977 206.58466797 207.69200195 207.30654297 208.35473633 208.05029297 C222.00456931 223.92593369 227.94185856 244.02711216 226.58569336 264.79248047 C224.61234543 287.46726432 214.77960576 306.14704441 198.40551758 321.86279297 C196.7417938 323.19979662 195.07594732 324.53417714 193.40551758 325.86279297 C193.07551758 326.52279297 192.74551758 327.18279297 192.40551758 327.86279297 C191.74551758 327.86279297 191.08551758 327.86279297 190.40551758 327.86279297 C190.13690918 328.45664795 189.86830078 329.05050293 189.59155273 329.66235352 C188.40019526 331.87266742 187.2033986 333.3092648 185.42895508 335.06982422 C184.84452637 335.65296387 184.26009766 336.23610352 183.65795898 336.83691406 C183.03840332 337.4435791 182.41884766 338.05024414 181.78051758 338.67529297 C181.14678223 339.30258301 180.51304687 339.92987305 179.86010742 340.57617188 C176.09297276 344.28159765 172.24273387 347.84229311 168.22973633 351.28076172 C166.05901065 353.16329684 163.93519192 355.08055224 161.84301758 357.05029297 C161.16110352 357.68322266 160.47918945 358.31615234 159.77661133 358.96826172 C158.19581453 360.72271272 158.19581453 360.72271272 158.54638672 362.69824219 C159.71877051 365.65202299 161.47893382 367.20449434 163.78051758 369.39013672 C164.67947754 370.25815918 165.5784375 371.12618164 166.50463867 372.02050781 C166.97923523 372.47431824 167.45383179 372.92812866 167.94281006 373.39569092 C186.35019614 391.07185098 198.96075529 410.43345063 200.64379883 436.56201172 C200.97457415 454.3368331 197.87924286 470.62386931 188.40551758 485.86279297 C187.89158447 486.7306543 187.37765137 487.59851563 186.84814453 488.49267578 C179.96419315 499.30199957 170.83264258 508.00539629 161.75878906 516.97607422 C158.96549347 519.7402908 156.19147726 522.52283672 153.41918945 525.30810547 C151.62537921 527.09568001 149.8304935 528.88217611 148.03442383 530.66748047 C147.21744522 531.48739471 146.40046661 532.30730896 145.55873108 533.15206909 C127.34473193 551.07401261 104.79510584 561.12556579 79.17016602 561.11157227 C50.35389352 560.68272196 29.30598917 544.83585111 9.71801758 525.42529297 C8.90236328 524.61906494 8.08670898 523.81283691 7.24633789 522.98217773 C6.490625 522.22219482 5.73491211 521.46221191 4.95629883 520.67919922 C4.27220947 519.992854 3.58812012 519.30650879 2.88330078 518.59936523 C1.40551758 516.86279297 1.40551758 516.86279297 1.40551758 514.86279297 C0.85226807 514.63479004 0.29901855 514.40678711 -0.27099609 514.171875 C-3.26691143 512.48393783 -5.34390764 510.35493761 -7.77026367 507.91748047 C-8.50263496 507.18442184 -8.50263496 507.18442184 -9.24980164 506.43655396 C-10.2817044 505.4016363 -11.31118186 504.36429546 -12.33837891 503.32470703 C-13.88623134 501.75878628 -15.44174593 500.20082939 -16.9987793 498.64404297 C-21.89726632 493.72767377 -26.6834119 488.75405656 -31.20117188 483.48095703 C-32.90145385 481.50628226 -34.68561053 479.63858446 -36.53198242 477.80029297 C-37.11850586 477.21119141 -37.7050293 476.62208984 -38.30932617 476.01513672 C-40.24246028 474.19435571 -42.2124689 472.46243094 -44.2253418 470.73193359 C-48.58617739 466.92236502 -52.69849539 462.903373 -56.78588867 458.80419922 C-57.53482895 458.05621567 -58.28376923 457.30823212 -59.05540466 456.5375824 C-60.62719467 454.96646833 -62.19774091 453.39410904 -63.76708984 451.82055664 C-66.15049546 449.43179451 -68.5391931 447.04841851 -70.9284668 444.66552734 C-72.46459479 443.12873847 -74.00041251 441.59163937 -75.53588867 440.05419922 C-76.24024551 439.35186661 -76.94460236 438.649534 -77.67030334 437.92591858 C-81.61523967 433.96254288 -85.37474278 429.90641262 -88.98643494 425.63609314 C-91.14962643 423.250599 -93.5661011 421.26446963 -96.04760742 419.22216797 C-97.59448242 417.86279297 -97.59448242 417.86279297 -99.53198242 415.42529297 C-101.28757914 413.24409705 -102.84138802 411.75595597 -104.96948242 409.98779297 C-108.98343547 406.5588995 -112.52611099 402.80356764 -116.09448242 398.92529297 C-121.40066356 393.16538009 -126.81130338 387.53036089 -132.34448242 381.98779297 C-133.03606445 381.29177979 -133.72764648 380.5957666 -134.44018555 379.87866211 C-135.40601563 378.91561157 -135.40601563 378.91561157 -136.39135742 377.93310547 C-136.96208984 377.36350098 -137.53282227 376.79389648 -138.12084961 376.20703125 C-139.57247353 374.76030661 -139.57247353 374.76030661 -141.59448242 373.86279297 C-141.59448242 373.20279297 -141.59448242 372.54279297 -141.59448242 371.86279297 C-142.91448242 371.20279297 -144.23448242 370.54279297 -145.59448242 369.86279297 C-145.59448242 369.20279297 -145.59448242 368.54279297 -145.59448242 367.86279297 C-146.25448242 367.86279297 -146.91448242 367.86279297 -147.59448242 367.86279297 C-148.85961914 366.57641602 -148.85961914 366.57641602 -150.39916992 364.68701172 C-155.80665255 358.32880907 -161.80027057 352.55106557 -167.71948242 346.67529297 C-168.89810297 345.50170094 -170.07649004 344.32787437 -171.25463867 343.15380859 C-173.41872862 340.99781622 -175.58415846 338.84319019 -177.7512207 336.69018555 C-182.68792742 331.78319738 -187.59944381 326.85117722 -192.51179504 321.91983032 C-195.80979234 318.61020399 -199.10966184 315.30244842 -202.41015339 311.99530983 C-204.90611924 309.49413121 -207.40114087 306.99202551 -209.89404297 304.48779297 C-212.78745834 301.58132072 -215.68501475 298.67900724 -218.58276367 295.77685547 C-219.46636063 294.88809723 -220.34995758 293.99933899 -221.2603302 293.08364868 C-225.66490109 288.67868369 -230.13202317 284.42924742 -234.85710144 280.36987305 C-238.9649931 276.80650857 -242.74977751 272.89204495 -246.59448242 269.05029297 C-247.46459961 268.19242188 -248.3347168 267.33455078 -249.23120117 266.45068359 C-250.05233398 265.63148438 -250.8734668 264.81228516 -251.71948242 263.96826172 C-252.46456055 263.22729248 -253.20963867 262.48632324 -253.97729492 261.72290039 C-255.59448242 259.86279297 -255.59448242 259.86279297 -255.59448242 257.86279297 C-256.25448242 257.86279297 -256.91448242 257.86279297 -257.59448242 257.86279297 C-259.14526367 256.25341797 -259.14526367 256.25341797 -260.90698242 254.11279297 C-263.5939157 250.94744093 -266.28595099 248.38772485 -269.59448242 245.86279297 C-274.42964726 241.35729846 -274.42964726 241.35729846 -275.59448242 237.86279297 C-276.25448242 237.86279297 -276.91448242 237.86279297 -277.59448242 237.86279297 C-277.59448242 237.20279297 -277.59448242 236.54279297 -277.59448242 235.86279297 C-278.42979492 235.52248047 -278.42979492 235.52248047 -279.28198242 235.17529297 C-282.24143332 233.49560462 -284.25575026 231.32146012 -286.59448242 228.86279297 C-287.19260742 228.30591797 -287.79073242 227.74904297 -288.40698242 227.17529297 C-289.59448242 225.86279297 -289.59448242 225.86279297 -289.59448242 223.86279297 C-290.47780243 223.46646667 -290.47780243 223.46646667 -291.37896729 223.06213379 C-293.67940881 221.81681915 -295.19547839 220.51543835 -297.04272461 218.67333984 C-297.69730652 218.02506226 -298.35188843 217.37678467 -299.02630615 216.7088623 C-299.72427307 216.00684692 -300.42223999 215.30483154 -301.14135742 214.58154297 C-302.23640594 213.48936462 -302.23640594 213.48936462 -303.35357666 212.37512207 C-304.89923067 210.83082885 -306.44236264 209.28400786 -307.9831543 207.73486328 C-310.31499464 205.3924149 -312.65717234 203.06069642 -315.00073242 200.72998047 C-335.22832148 180.52297254 -348.75861341 161.50395318 -348.90698242 131.98779297 C-348.90698242 101.90054278 -336.14763744 82.10833329 -315.38478088 61.28166199 C-313.57084768 59.47450907 -311.75439953 57.66987731 -309.93554688 55.86767578 C-307.13051223 53.08654838 -304.339367 50.29200029 -301.54956055 47.49560547 C-299.77496544 45.72657793 -297.99960309 43.95831962 -296.22338867 42.19091797 C-295.38699356 41.35361145 -294.55059845 40.51630493 -293.68885803 39.65362549 C-292.91722824 38.89152771 -292.14559845 38.12942993 -291.35058594 37.34423828 C-290.6715773 36.66983704 -289.99256866 35.99543579 -289.29298401 35.30059814 C-287.59448242 33.86279297 -287.59448242 33.86279297 -285.59448242 33.86279297 C-285.59448242 33.20279297 -285.59448242 32.54279297 -285.59448242 31.86279297 C-267.3136379 15.39356367 -244.47069881 10.65117704 -220.59448242 11.86279297 C-191.53766788 14.76587659 -171.85562704 35.11125493 -152.59448242 54.86279297 C-148.33074757 53.2113965 -145.47959855 50.01827065 -142.33276367 46.83154297 C-141.74150192 46.239823 -141.15024017 45.64810303 -140.5410614 45.03845215 C-139.29566876 43.79004488 -138.05270099 42.53921449 -136.81201172 41.28613281 C-134.90864965 39.36447622 -132.99736857 37.45098037 -131.0847168 35.53857422 C-129.87525873 34.32420206 -128.66625836 33.10937384 -127.45776367 31.89404297 C-126.59843987 31.03304993 -126.59843987 31.03304993 -125.72175598 30.15466309 C-122.80203898 27.27739108 -122.80203898 27.27739108 -120.59448242 23.86279297 C-119.93448242 23.86279297 -119.27448242 23.86279297 -118.59448242 23.86279297 C-118.59448242 23.20279297 -118.59448242 22.54279297 -118.59448242 21.86279297 C-117.93448242 21.86279297 -117.27448242 21.86279297 -116.59448242 21.86279297 C-115.93448242 20.54279297 -115.27448242 19.22279297 -114.59448242 17.86279297 C-113.93448242 17.86279297 -113.27448242 17.86279297 -112.59448242 17.86279297 C-112.59448242 17.20279297 -112.59448242 16.54279297 -112.59448242 15.86279297 C-111.93448242 15.86279297 -111.27448242 15.86279297 -110.59448242 15.86279297 C-110.59448242 15.20279297 -110.59448242 14.54279297 -110.59448242 13.86279297 C-109.93448242 13.86279297 -109.27448242 13.86279297 -108.59448242 13.86279297 C-107.93448242 12.54279297 -107.27448242 11.22279297 -106.59448242 9.86279297 C-105.93448242 9.86279297 -105.27448242 9.86279297 -104.59448242 9.86279297 C-104.59448242 9.20279297 -104.59448242 8.54279297 -104.59448242 7.86279297 C-76.1661141 -19.16037084 -31.95219615 -23.68058395 0 0 Z " fill="#FEFEFE" transform="translate(1443.594482421875,399.13720703125)"/>
<path d="M0 0 C4.13944829 3.19667801 7.85842586 6.68964265 11.44140625 10.49609375 C12.93345856 12.16197864 12.93345856 12.16197864 15 13.0625 C15 13.7225 15 14.3825 15 15.0625 C15.66 15.0625 16.32 15.0625 17 15.0625 C17 15.7225 17 16.3825 17 17.0625 C17.55268555 17.29066406 18.10537109 17.51882813 18.67480469 17.75390625 C21.67246403 19.44095518 23.7676506 21.57062518 26.203125 24 C26.6857782 24.48073975 27.1684314 24.96147949 27.66571045 25.45678711 C28.67999064 26.46971093 29.69176804 27.48514638 30.70117188 28.50292969 C32.25171972 30.06423165 33.81270503 31.61452497 35.375 33.1640625 C36.36001734 34.15040061 37.34441453 35.1373585 38.328125 36.125 C39.2243457 37.02347656 40.12056641 37.92195313 41.04394531 38.84765625 C43 41.0625 43 41.0625 43 43.0625 C43.66 43.0625 44.32 43.0625 45 43.0625 C45 43.7225 45 44.3825 45 45.0625 C45.66 45.0625 46.32 45.0625 47 45.0625 C47 45.7225 47 46.3825 47 47.0625 C47.66 47.0625 48.32 47.0625 49 47.0625 C49 47.7225 49 48.3825 49 49.0625 C49.54366211 49.28164062 50.08732422 49.50078125 50.64746094 49.7265625 C53.77667207 51.50354915 56.12685399 53.90354975 58.640625 56.4375 C59.16767029 56.96263184 59.69471558 57.48776367 60.23773193 58.02880859 C61.34616928 59.13588883 62.45210046 60.2454833 63.55566406 61.35742188 C65.25106301 63.06356975 66.9569161 64.75874047 68.6640625 66.453125 C69.74022558 67.53060892 70.81576851 68.60871267 71.890625 69.6875 C72.40304749 70.19587402 72.91546997 70.70424805 73.44342041 71.22802734 C77 74.83255909 77 74.83255909 77 77.0625 C77.54366211 77.28164062 78.08732422 77.50078125 78.64746094 77.7265625 C81.77667207 79.50354915 84.12685399 81.90354975 86.640625 84.4375 C87.16767029 84.96263184 87.69471558 85.48776367 88.23773193 86.02880859 C89.34616928 87.13588883 90.45210046 88.2454833 91.55566406 89.35742188 C93.25106301 91.06356975 94.9569161 92.75874047 96.6640625 94.453125 C97.74022558 95.53060892 98.81576851 96.60871267 99.890625 97.6875 C100.40304749 98.19587402 100.91546997 98.70424805 101.44342041 99.22802734 C105 102.83255909 105 102.83255909 105 105.0625 C105.66 105.0625 106.32 105.0625 107 105.0625 C107 105.7225 107 106.3825 107 107.0625 C107.66 107.0625 108.32 107.0625 109 107.0625 C109 107.7225 109 108.3825 109 109.0625 C109.66 109.0625 110.32 109.0625 111 109.0625 C111 109.7225 111 110.3825 111 111.0625 C111.59058063 111.32827158 112.18116127 111.59404316 112.78963828 111.86786842 C115.06065099 113.09527997 116.54563913 114.35751709 118.36578751 116.17660522 C119.01469649 116.82029871 119.66360547 117.4639922 120.33217835 118.12719154 C121.03646147 118.83593611 121.7407446 119.54468067 122.46636963 120.27490234 C123.59855663 121.40240937 123.59855663 121.40240937 124.75361609 122.55269432 C127.28877589 125.07985854 129.81670552 127.61413357 132.34472656 130.1484375 C134.1576863 131.95868812 135.97107144 133.76851278 137.78485107 135.57794189 C142.20251643 139.98742202 146.61545959 144.40157994 151.02613476 148.81805086 C154.60932584 152.40575572 158.19446062 155.99150735 161.78099823 159.5758667 C162.29112274 160.08568474 162.80124725 160.59550278 163.32683007 161.12076986 C164.36306746 162.15636781 165.39930934 163.19196126 166.43555567 164.22755027 C176.15371924 173.94000968 185.86574094 183.65859209 195.5756788 193.37927413 C203.91449562 201.72703191 212.25854992 210.0695244 220.60644531 218.40820312 C230.29505509 228.08612104 239.98042659 237.7672607 249.66061759 247.45359993 C250.69182913 248.48544859 251.72304486 249.51729306 252.75426483 250.5491333 C253.26168117 251.05685819 253.76909751 251.56458308 254.2918901 252.08769357 C257.87481858 255.67235184 261.46006871 259.25467801 265.04621124 262.83612061 C269.86730857 267.65103836 274.6831007 272.47120041 279.49530792 277.2950058 C281.26737504 279.06972886 283.04116745 280.84273104 284.8167572 282.61392975 C287.22966031 285.02141292 289.63638979 287.43489767 292.04156494 289.85009766 C292.75477095 290.55884222 293.46797696 291.26758678 294.20279527 291.99780846 C294.84127326 292.64150194 295.47975125 293.28519543 296.13757706 293.94839478 C296.69435709 294.50549952 297.25113713 295.06260426 297.82478929 295.63659096 C299 297.0625 299 297.0625 299 299.0625 C299.66 299.0625 300.32 299.0625 301 299.0625 C301 299.7225 301 300.3825 301 301.0625 C301.66 301.0625 302.32 301.0625 303 301.0625 C303 301.7225 303 302.3825 303 303.0625 C303.82902832 303.40474609 303.82902832 303.40474609 304.67480469 303.75390625 C307.67246403 305.44095518 309.7676506 307.57062518 312.203125 310 C312.6857782 310.48073975 313.1684314 310.96147949 313.66571045 311.45678711 C314.67999064 312.46971093 315.69176804 313.48514638 316.70117188 314.50292969 C318.25171972 316.06423165 319.81270503 317.61452497 321.375 319.1640625 C322.36001734 320.15040061 323.34441453 321.1373585 324.328125 322.125 C325.2243457 323.02347656 326.12056641 323.92195313 327.04394531 324.84765625 C329 327.0625 329 327.0625 329 329.0625 C329.66 329.0625 330.32 329.0625 331 329.0625 C331 329.7225 331 330.3825 331 331.0625 C331.66 331.0625 332.32 331.0625 333 331.0625 C333 331.7225 333 332.3825 333 333.0625 C333.66 333.0625 334.32 333.0625 335 333.0625 C335 333.7225 335 334.3825 335 335.0625 C335.66 335.0625 336.32 335.0625 337 335.0625 C337 335.7225 337 336.3825 337 337.0625 C337.58628174 337.32426025 338.17256348 337.58602051 338.77661133 337.85571289 C341.12431048 339.12997191 342.68581889 340.48988878 344.57421875 342.37109375 C345.23752197 343.03020752 345.9008252 343.68932129 346.58422852 344.3684082 C347.27830811 345.0718335 347.9723877 345.77525879 348.6875 346.5 C349.40284912 347.2221167 350.11819824 347.9442334 350.85522461 348.68823242 C369.84457924 368.048027 381.2418431 388.74037486 382.375 416.125 C381.42821878 438.76885081 373.32863357 458.5178372 357.69140625 474.9765625 C357.08623672 475.61864655 356.4810672 476.26073059 355.8575592 476.92227173 C349.32360883 483.82654657 342.68796505 490.63046185 335.98608398 497.37158203 C334.61409563 498.75517939 333.24660928 500.14325477 331.88354492 501.53564453 C313.88645262 519.91647472 293.88790721 533.8809316 267.07348633 534.30444336 C239.30558164 534.39137447 218.83674279 524.0340713 199.46899414 504.79077148 C194.60197782 499.92428775 189.78938141 495.00534938 185 490.0625 C181.9181335 491.43463013 179.82507205 492.99628899 177.45996094 495.39135742 C176.44805695 496.40832954 176.44805695 496.40832954 175.41571045 497.44584656 C174.3359494 498.54579704 174.3359494 498.54579704 173.234375 499.66796875 C172.48214661 500.42539871 171.72991821 501.18282867 170.95489502 501.96321106 C168.54846775 504.38744306 166.14880762 506.81822983 163.75 509.25 C161.36466796 511.66309092 158.97784948 514.07466121 156.58795166 516.48323059 C155.10247625 517.98080564 153.61967962 519.48104445 152.14007568 520.98442078 C148.15803069 525.00430914 144.08199731 528.82781946 139.76959229 532.49238586 C138.00603727 534.05714329 136.4093492 535.70453198 134.8125 537.4375 C120.29757538 552.11774267 100.94659499 558.67310645 80.625 559.3125 C47.70451081 558.93745645 27.35137826 540.61487386 5.375 518.5 C3.97549577 517.09546858 2.57575787 515.69116994 1.17578125 514.28710938 C-2.21884285 510.88158122 -5.61029906 507.47292818 -9 504.0625 C-10.08643799 504.68503662 -11.17287598 505.30757324 -12.29223633 505.94897461 C-30.51536817 516.39095754 -48.06093212 521.56018965 -68.9375 516.4375 C-86.29626184 511.06631994 -98.70843434 500.57392543 -111.375 488 C-112.13127686 487.24936279 -112.88755371 486.49872559 -113.66674805 485.7253418 C-119 480.3191586 -119 480.3191586 -119 478.0625 C-119.66 478.0625 -120.32 478.0625 -121 478.0625 C-122.55078125 476.48828125 -122.55078125 476.48828125 -124.3125 474.375 C-126.2810453 472.05882658 -128.22392787 469.83857213 -130.375 467.6875 C-131.24125 466.82125 -132.1075 465.955 -133 465.0625 C-133.66902344 464.41410156 -134.33804688 463.76570313 -135.02734375 463.09765625 C-147.29461558 450.49486929 -152.72882036 435.06281409 -153.4375 417.625 C-153.04618205 403.14623589 -148.01452876 387.39505044 -139 376.0625 C-140.38055774 372.94437694 -141.96065215 370.8760451 -144.40478516 368.51000977 C-145.09955963 367.83152481 -145.79433411 367.15303986 -146.51016235 366.45399475 C-147.63821793 365.36495094 -147.63821793 365.36495094 -148.7890625 364.25390625 C-150.38716625 362.68600287 -151.98480727 361.11762773 -153.58203125 359.54882812 C-156.09118594 357.09506909 -158.60394881 354.64537908 -161.12548828 352.2043457 C-180.23970463 333.66585877 -193.74500376 313.51144139 -194.4375 285.9375 C-194.04578627 274.28063982 -191.63181133 262.77564634 -187 252.0625 C-186.64164062 251.22332031 -186.28328125 250.38414062 -185.9140625 249.51953125 C-179.27712901 235.15435642 -166.74971412 223.62654147 -155.625 212.66015625 C-153.88138348 210.92916431 -152.13789753 209.19804084 -150.39453125 207.46679688 C-147.67943432 204.77667033 -144.96274025 202.08819238 -142.24365234 199.40209961 C-139.59560777 196.7841088 -136.95369623 194.16005328 -134.3125 191.53515625 C-133.49281738 190.72893326 -132.67313477 189.92271027 -131.82861328 189.09205627 C-131.07692871 188.34375046 -130.32524414 187.59544464 -129.55078125 186.82446289 C-128.88731689 186.16845596 -128.22385254 185.51244904 -127.5402832 184.83656311 C-125.77829291 183.03599953 -125.77829291 183.03599953 -125 180.0625 C-125.56895996 179.81588623 -126.13791992 179.56927246 -126.72412109 179.31518555 C-145.37334583 169.05030976 -158.90049849 146.86527348 -165 127.0625 C-170.80140307 105.91124375 -168.49662493 82.30448036 -157.9375 62.9375 C-148.89037701 48.82494364 -136.39657365 37.08629998 -124.60913086 25.30102539 C-121.92823582 22.61572058 -119.26381576 19.91474154 -116.59960938 17.21289062 C-114.86816767 15.47558509 -113.13577828 13.73922341 -111.40234375 12.00390625 C-110.62181137 11.20900284 -109.84127899 10.41409943 -109.03709412 9.59510803 C-96.77977744 -2.56313374 -80.90096797 -10.6185788 -64 -13.9375 C-63.24332031 -14.11925781 -62.48664063 -14.30101562 -61.70703125 -14.48828125 C-40.54386605 -18.00020621 -17.47667467 -12.23607621 0 0 Z " fill="#FEFEFE" transform="translate(572,1113.9375)"/>
<path d="M0 0 C4.47916233 3.76061109 8.79901743 7.61724147 12.9375 11.75 C13.43056641 12.23082031 13.92363281 12.71164062 14.43164062 13.20703125 C15.66165593 14.4319286 16.83619567 15.71202848 18 17 C18 17.66 18 18.32 18 19 C18.66 19 19.32 19 20 19 C21.4501276 20.46957397 21.4501276 20.46957397 23.13356018 22.50146484 C26.85186202 26.87070253 30.79733601 30.93189836 34.86303711 34.9765625 C35.61508423 35.72875565 36.36713135 36.48094879 37.14196777 37.25593567 C39.60139408 39.71467137 42.06433165 42.1698568 44.52734375 44.625 C46.243917 46.33970604 47.96026802 48.05463458 49.67640686 49.76977539 C54.17370062 54.26326784 58.6739904 58.75374789 63.17492676 63.24359131 C67.77534449 67.83374343 72.37290026 72.42676017 76.97070312 77.01953125 C85.97768181 86.01581473 94.98773363 95.00901377 104 104 C102.02566491 107.40228927 100.31827106 109.83947353 97.25 112.3125 C94.46055817 114.56333009 92.12285085 116.96668646 89.79886305 119.68148357 C86.310266 123.69219 82.65554942 127.48336303 78.89006615 131.23298168 C78.20644937 131.9177523 77.5228326 132.60252292 76.81850016 133.30804417 C74.53747863 135.5917031 72.25292164 137.87179098 69.96835327 140.15190125 C68.31161698 141.80907383 66.65510055 143.46646624 64.99878466 145.12405902 C60.93033789 149.19450553 56.859578 153.26262813 52.78783044 157.32977257 C47.9082842 162.20406818 43.0316626 167.0812859 38.15514062 171.95860684 C29.15513559 180.9599241 20.15280949 189.95891662 11.14915085 198.95657921 C2.2334706 207.86633733 -6.68117023 216.77713333 -15.59443283 225.68931007 C-16.14915109 226.24395959 -16.70386935 226.79860911 -17.27539725 227.37006619 C-20.09275334 230.18708393 -22.91009095 233.00412016 -25.72742145 235.82116351 C-45.67598138 255.76762383 -65.62685775 275.71176571 -85.57910156 295.65454102 C-104.94778701 315.01404557 -124.31542469 334.37459733 -143.68164062 353.73657227 C-144.27842105 354.33322116 -144.87520147 354.92987006 -145.49006614 355.54459922 C-151.4838491 361.53706352 -157.47761066 367.52954922 -163.47135646 373.52205068 C-175.69386553 385.74202145 -187.91651577 397.961851 -200.13925171 410.18159485 C-200.70157069 410.74377654 -201.26388967 411.30595823 -201.84324862 411.88517573 C-235.85739186 445.89098519 -269.87428321 479.89404559 -303.89180911 513.8964712 C-304.61357919 514.61792418 -305.33534927 515.33937716 -306.07899117 516.08269235 C-307.40112424 517.40424352 -308.72326164 518.72579035 -310.04540455 520.04733166 C-311.18527086 521.18669807 -312.32511632 522.32608533 -313.46493597 523.46549841 C-314.89716062 524.8971983 -316.32948741 526.32879601 -317.7618221 527.76038581 C-320.37154465 530.37178308 -322.97077837 532.99347728 -325.56884766 535.61645508 C-330.96229714 541.05872584 -336.36321872 546.49351533 -341.76854897 551.92398548 C-345.03294749 555.20411184 -348.29445165 558.4870174 -351.54980469 561.77612305 C-354.70669024 564.9655174 -357.87077219 568.14760384 -361.04005051 571.32468224 C-362.24598087 572.53616259 -363.44926434 573.75028359 -364.64986038 574.96705055 C-366.32302003 576.6618772 -368.00522144 578.34719317 -369.68994141 580.03051758 C-370.18559097 580.53695297 -370.68124054 581.04338837 -371.19190979 581.56517029 C-374.65783407 585 -374.65783407 585 -378 585 C-379.4296875 583.64453125 -379.4296875 583.64453125 -380.875 581.8125 C-383.39500182 578.65216985 -386.11764956 575.83558664 -389 573 C-392.66666667 569.33333333 -396.33333333 565.66666667 -400 562 C-401.13949097 560.86159668 -401.13949097 560.86159668 -402.30200195 559.70019531 C-404.64733295 557.35295426 -406.98820409 555.00143568 -409.326828 552.64752197 C-411.5322047 550.42870535 -413.74030114 548.21260322 -415.94848633 545.99658203 C-417.11408369 544.82591188 -418.27878845 543.65435235 -419.44262695 542.48193359 C-421.12999024 540.78248895 -422.82052084 539.08625256 -424.51171875 537.390625 C-425.03255539 536.86462708 -425.55339203 536.33862915 -426.0900116 535.79669189 C-428.78531423 533.05535707 -428.78531423 533.05535707 -432 531 C-432 530.34 -432 529.68 -432 529 C-432.61875 528.7525 -433.2375 528.505 -433.875 528.25 C-436.35068687 526.79371361 -436.95125002 525.62187494 -438 523 C-438.66 523 -439.32 523 -440 523 C-440 522.34 -440 521.68 -440 521 C-440.66 521 -441.32 521 -442 521 C-443.46412659 519.51586914 -443.46412659 519.51586914 -445.15844727 517.47265625 C-448.74496303 513.25727149 -452.53717439 509.33359125 -456.46484375 505.4375 C-457.14301651 504.76074219 -457.82118927 504.08398438 -458.51991272 503.38671875 C-460.65674305 501.25542325 -462.79704823 499.12765782 -464.9375 497 C-466.39932123 495.54320221 -467.86091187 494.08617299 -469.32226562 492.62890625 C-472.878854 489.08326027 -476.43856016 485.54077261 -480 482 C-478.63509208 479.15322394 -477.43687113 477.22515846 -475.06640625 475.125 C-474.49986328 474.61453125 -473.93332031 474.1040625 -473.34960938 473.578125 C-472.75986328 473.05734375 -472.17011719 472.5365625 -471.5625 472 C-467.99274012 468.82688011 -464.86691376 465.83484284 -462 462 C-461.34 462 -460.68 462 -460 462 C-460 461.34 -460 460.68 -460 460 C-459.34 460 -458.68 460 -458 460 C-458 459.34 -458 458.68 -458 458 C-456.66349792 456.6835022 -456.66349792 456.6835022 -454.73510742 455.10400391 C-448.92670318 450.16016298 -443.61371807 444.73810333 -438.23828125 439.3359375 C-437.11848138 438.21426736 -435.99845668 437.09282163 -434.8782196 435.97158813 C-431.95007227 433.03965186 -429.02493876 430.10472718 -426.10046387 427.16912842 C-423.12804052 424.18645674 -420.15277317 421.20662502 -417.17773438 418.2265625 C-411.94409779 412.98339822 -406.7129348 407.73777735 -401.4835968 402.49032593 C-394.69582395 395.68416209 -394.69582395 395.68416209 -391.90234375 392.9375 C-387.76316917 388.85771396 -387.76316917 388.85771396 -384 384.4375 C-382.27676799 382.33731099 -380.6824221 380.82113552 -378.62109375 379.0859375 C-373.38540044 374.54892823 -368.51039551 369.66083718 -363.62475586 364.75512695 C-362.04460356 363.16954204 -360.45908024 361.58946558 -358.87304688 360.00976562 C-357.86426194 359.00032108 -356.85578662 357.99056701 -355.84765625 356.98046875 C-354.94023682 356.07192139 -354.03281738 355.16337402 -353.09790039 354.22729492 C-350.97253466 352.18483415 -350.97253466 352.18483415 -350 350 C-349.34 350 -348.68 350 -348 350 C-348 349.34 -348 348.68 -348 348 C-346.65672588 346.67617226 -346.65672588 346.67617226 -344.72306824 345.0909729 C-338.99302074 340.21252019 -333.7385448 334.87056788 -328.4309082 329.54443359 C-327.28536113 328.39860393 -326.13959279 327.25299545 -324.99362183 326.10758972 C-321.90277303 323.01702626 -318.81500437 319.92340231 -315.72780252 316.82919645 C-312.48751063 313.58261964 -309.24435437 310.33890667 -306.00151062 307.09487915 C-299.86459495 300.95486251 -293.73023038 294.81230373 -287.59679335 288.66881239 C-280.6308002 281.69164629 -273.66197338 274.71731345 -266.6929003 267.74322391 C-254.77913462 255.82078499 -242.86746718 243.89625317 -230.95820618 231.96931458 C-230.20315891 231.21315792 -230.20315891 231.21315792 -229.43285817 230.44172537 C-228.09525863 229.10214481 -226.75769047 227.76253291 -225.42012501 226.42291832 C-217.90225817 218.89637435 -217.90225817 218.89637435 -215.140625 216.17578125 C-214.17707098 215.22136663 -213.21352938 214.26693948 -212.25 213.3125 C-211.75628906 212.82716797 -211.26257813 212.34183594 -210.75390625 211.84179688 C-208.03384724 209.18159783 -208.03384724 209.18159783 -206 206 C-205.34 206 -204.68 206 -204 206 C-204 205.34 -204 204.68 -204 204 C-202.3203125 202.37890625 -202.3203125 202.37890625 -200.125 200.5625 C-197.53806278 198.41599116 -195.88815626 196.83223438 -194 194 C-193.34 194 -192.68 194 -192 194 C-192 193.34 -192 192.68 -192 192 C-191.34 192 -190.68 192 -190 192 C-190 191.34 -190 190.68 -190 190 C-189.34 190 -188.68 190 -188 190 C-187.67 189.01 -187.34 188.02 -187 187 C-185.328125 185.38671875 -185.328125 185.38671875 -183.25 183.6875 C-180.60274661 181.4577346 -178.27343584 179.27699079 -176.125 176.5625 C-175.42375 175.716875 -174.7225 174.87125 -174 174 C-173.34 174 -172.68 174 -172 174 C-171.34 172.68 -170.68 171.36 -170 170 C-169.34 170 -168.68 170 -168 170 C-168 169.34 -168 168.68 -168 168 C-167.34 168 -166.68 168 -166 168 C-166 167.34 -166 166.68 -166 166 C-165.34 166 -164.68 166 -164 166 C-163.67 165.01 -163.34 164.02 -163 163 C-162.34 163 -161.68 163 -161 163 C-161 162.34 -161 161.68 -161 161 C-159.625 159.375 -159.625 159.375 -158 158 C-157.34 158 -156.68 158 -156 158 C-155.74992187 157.41089844 -155.49984375 156.82179688 -155.2421875 156.21484375 C-153.83561753 153.70690295 -152.34445666 152.37575422 -150.125 150.5625 C-146.99698022 147.93315004 -144.5325627 145.2144065 -142 142 C-141.34 142 -140.68 142 -140 142 C-139.67 141.01 -139.34 140.02 -139 139 C-137.51294684 137.73923754 -136.0223766 136.48148153 -134.4921875 135.2734375 C-132.67850185 133.72563247 -131.41370654 131.90850382 -130 130 C-129.34 130 -128.68 130 -128 130 C-127.34 128.68 -126.68 127.36 -126 126 C-125.34 126 -124.68 126 -124 126 C-123.74992187 125.41089844 -123.49984375 124.82179688 -123.2421875 124.21484375 C-121.83561753 121.70690295 -120.34445666 120.37575422 -118.125 118.5625 C-114.99698022 115.93315004 -112.5325627 113.2144065 -110 110 C-109.34 110 -108.68 110 -108 110 C-107.67 109.01 -107.34 108.02 -107 107 C-106.34 107 -105.68 107 -105 107 C-105 106.34 -105 105.68 -105 105 C-103.625 103.375 -103.625 103.375 -102 102 C-101.34 102 -100.68 102 -100 102 C-99.62875 101.13375 -99.62875 101.13375 -99.25 100.25 C-97.81700012 97.67060021 -96.21575324 95.93878408 -94 94 C-93.34 94 -92.68 94 -92 94 C-91.74992187 93.41089844 -91.49984375 92.82179688 -91.2421875 92.21484375 C-89.83561753 89.70690295 -88.34445666 88.37575422 -86.125 86.5625 C-82.99698022 83.93315004 -80.5325627 81.2144065 -78 78 C-77.34 78 -76.68 78 -76 78 C-75.77248047 77.44781799 -75.54496094 76.89563599 -75.31054688 76.32672119 C-73.61421561 73.31508539 -71.47442831 71.21989585 -69.03125 68.77246094 C-68.52698486 68.26469116 -68.02271973 67.75692139 -67.50317383 67.23376465 C-65.84043464 65.56224561 -64.17051377 63.8981215 -62.5 62.234375 C-61.34150393 61.07453163 -60.18330488 59.9143915 -59.02539062 58.75396729 C-56.60089564 56.32652647 -54.17282638 53.90273366 -51.7421875 51.48144531 C-48.62136558 48.37204303 -45.50964136 45.25371488 -42.4005127 42.13262558 C-40.01243075 39.73733217 -37.61962507 37.34680356 -35.2253418 34.95771027 C-34.07557186 33.80927748 -32.92729398 32.65934895 -31.78051758 31.50792694 C-30.18137281 29.90372591 -28.5759975 28.30603808 -26.96875 26.70996094 C-26.05544922 25.79825134 -25.14214844 24.88654175 -24.20117188 23.94720459 C-22 22 -22 22 -20 22 C-19.63285889 21.14390137 -19.63285889 21.14390137 -19.25830078 20.27050781 C-17.7798053 17.60267546 -16.03873452 15.81283685 -13.8671875 13.671875 C-12.65869141 12.47304688 -12.65869141 12.47304688 -11.42578125 11.25 C-10.58402344 10.425 -9.74226563 9.6 -8.875 8.75 C-7.60076172 7.48929688 -7.60076172 7.48929688 -6.30078125 6.203125 C-4.20495077 4.13084317 -2.10459287 2.06337607 0 0 Z " fill="#FEFEFE" transform="translate(1211,736)"/>
<path d="M0 0 C8.04093791 5.44187072 14.71537405 12.45608219 21.515625 19.3203125 C22.70103543 20.50946342 23.88689586 21.69816591 25.07318115 22.88644409 C28.17288474 25.99372473 31.26653766 29.10696001 34.35888672 32.22155762 C37.50384085 35.38701525 40.65449338 38.54678982 43.8046875 41.70703125 C49.3440617 47.26546103 54.87847211 52.82879034 60.40924072 58.39578247 C62.93519413 60.93485748 65.46645141 63.46850555 68 66 C116.76627604 114.76627604 165.53255208 163.53255208 214.29882812 212.29882812 C214.93933105 212.93852539 215.57983398 213.57822266 216.23974609 214.23730469 C217.33193219 215.33100561 218.42134584 216.42749188 219.50634766 217.52832031 C221.53473098 219.58304628 223.525871 221.40901078 225.8125 223.1875 C226.534375 223.785625 227.25625 224.38375 228 225 C228 225.66 228 226.32 228 227 C228.99 227.33 229.98 227.66 231 228 C231 228.66 231 229.32 231 230 C231.639375 230.268125 232.27875 230.53625 232.9375 230.8125 C235 232 235 232 236 235 C238.00016466 236.20882096 238.00016466 236.20882096 240 237 C240 237.66 240 238.32 240 239 C240.66 239 241.32 239 242 239 C243.25227484 240.47704212 244.50166522 241.95827399 245.68359375 243.4921875 C247.11764091 245.26762944 247.11764091 245.26762944 250 247 C250 247.66 250 248.32 250 249 C250.53109375 249.20625 251.0621875 249.4125 251.609375 249.625 C255.00773436 251.57961192 257.51055928 254.22123717 260.25 257 C260.80429688 257.5465625 261.35859375 258.093125 261.9296875 258.65625 C266 262.7466133 266 262.7466133 266 265 C266.66 265 267.32 265 268 265 C268 265.66 268 266.32 268 267 C268.99 267.33 269.98 267.66 271 268 C272.46166992 269.48071289 272.46166992 269.48071289 274.04296875 271.41015625 C278.52802775 276.69481294 283.40306721 281.54949019 288.3125 286.4375 C289.67084961 287.80165039 289.67084961 287.80165039 291.05664062 289.19335938 C291.92095703 290.05638672 292.78527344 290.91941406 293.67578125 291.80859375 C294.45864502 292.59032959 295.24150879 293.37206543 296.0480957 294.17749023 C297.87430532 296.05529367 297.87430532 296.05529367 300 297 C300 297.66 300 298.32 300 299 C300.54914063 299.21140625 301.09828125 299.4228125 301.6640625 299.640625 C304.82539492 301.48033016 306.98139992 304.03868654 309.375 306.75 C313.88572375 311.74451932 318.49297146 316.6140966 323.25 321.375 C323.80349121 321.9328418 324.35698242 322.49068359 324.92724609 323.06542969 C327.77428709 325.90320791 330.68169874 328.62130483 333.7265625 331.24609375 C338.53914226 335.41838312 343.1321608 339.80320201 347.67333984 344.26831055 C348.63849038 345.21187261 349.60985362 346.14912274 350.58740234 347.07983398 C359.13883879 355.22822554 366.86969679 364.69277425 367.23828125 377.01171875 C367.62037714 393.03575807 367.62037714 393.03575807 363 400 C362.44441406 400.86238281 361.88882812 401.72476562 361.31640625 402.61328125 C358.52283045 406.76459497 355.74453885 410.64679615 352 414 C351.34 414 350.68 414 350 414 C350 414.66 350 415.32 350 416 C349.34 416 348.68 416 348 416 C347.7525 416.57234375 347.505 417.1446875 347.25 417.734375 C345.80683801 420.35010611 344.11783778 422.14773456 342 424.25 C341.29875 424.95640625 340.5975 425.6628125 339.875 426.390625 C338 428 338 428 336 428 C335.78214844 428.54011719 335.56429688 429.08023437 335.33984375 429.63671875 C333.53771481 432.81540099 331.13068167 435.25239056 328.5625 437.8125 C328.03116455 438.34222412 327.4998291 438.87194824 326.95239258 439.41772461 C317.84178855 448.25294514 307.59887557 454.59969674 294.6875 454.4375 C293.84590332 454.42992676 293.00430664 454.42235352 292.13720703 454.41455078 C276.71426813 454.00577875 266.33745146 444.85165727 255.9375 434.25 C255.07189453 433.38761719 254.20628906 432.52523438 253.31445312 431.63671875 C247 425.26744401 247 425.26744401 247 423 C246.01 422.67 245.02 422.34 244 422 C242.46484375 420.40625 242.46484375 420.40625 240.9375 418.5 C238.82278233 415.81893599 238.82278233 415.81893599 236 414 C236 413.34 236 412.68 236 412 C235.34 412 234.68 412 234 412 C232.375 410.625 232.375 410.625 231 409 C231 408.34 231 407.68 231 407 C230.01 406.67 229.02 406.34 228 406 C225.8125 404.0625 225.8125 404.0625 224 402 C224 401.34 224 400.68 224 400 C223.38125 399.7525 222.7625 399.505 222.125 399.25 C219.64931313 397.79371361 219.04874998 396.62187494 218 394 C217.34 394 216.68 394 216 394 C214.5625 392.50390625 214.5625 392.50390625 213 390.5625 C210.85474956 387.84811762 210.85474956 387.84811762 208 386 C208 385.34 208 384.68 208 384 C207.38125 383.7525 206.7625 383.505 206.125 383.25 C203.59641373 381.76259631 203.28160996 380.56321991 202 378 C201.43925781 377.74476563 200.87851563 377.48953125 200.30078125 377.2265625 C197.06151812 375.49968878 194.72530827 372.97642351 192.1875 370.375 C191.65777588 369.83955566 191.12805176 369.30411133 190.58227539 368.75244141 C187.03319255 365.13774527 183.63686428 361.42461493 180.40234375 357.5234375 C178.88015896 355.74930154 178.88015896 355.74930154 176 354 C176 353.34 176 352.68 176 352 C175.1646875 351.690625 175.1646875 351.690625 174.3125 351.375 C171.75011389 349.85141907 170.30628061 348.01508071 168.47265625 345.69921875 C166.83876732 343.81396229 165.08313395 342.24611944 163.1875 340.625 C158.92771682 336.98187115 154.67091232 333.24693314 151 329 C151 328.34 151 327.68 151 327 C150.443125 326.773125 149.88625 326.54625 149.3125 326.3125 C146.34947861 324.63078516 144.38217373 322.4359037 142 320 C140.30384255 318.31464398 138.60720943 316.62976657 136.91015625 314.9453125 C135.45737122 313.49990536 134.00506995 312.05401408 132.55297852 310.60791016 C131.56201584 309.6219794 130.57015792 308.6369476 129.57739258 307.65283203 C120.23207622 298.38646401 120.23207622 298.38646401 116.80859375 294.2421875 C114.20590973 291.10875097 111.27728813 288.55267212 108.18164062 285.91503906 C104.01933793 282.26137945 100.15547599 278.29886912 96.25 274.375 C95.41339844 273.54226563 94.57679688 272.70953125 93.71484375 271.8515625 C92.90660156 271.04203125 92.09835937 270.2325 91.265625 269.3984375 C90.54149414 268.67317871 89.81736328 267.94791992 89.07128906 267.20068359 C87 265 87 265 84.96142578 262.42626953 C83.202219 260.25014344 81.49498536 258.56129437 79.3515625 256.78125 C74.45336285 252.58862705 69.92129706 248.0679461 65.375 243.5 C64.55515625 242.68402344 63.7353125 241.86804688 62.890625 241.02734375 C59.43254147 237.5637006 56.03327852 234.11798032 52.9140625 230.34375 C50.95720916 228.00182862 48.92772216 226.01248869 46.59158325 224.05168152 C40.66726618 218.92195622 35.17259116 213.35357382 29.62060547 207.8293457 C28.3879595 206.60625612 27.15514643 205.38333494 25.92218018 204.16056824 C21.89997861 200.16952574 17.88312306 196.17312752 13.8671875 192.17578125 C12.83864521 191.15218494 12.83864521 191.15218494 11.78932428 190.10790992 C5.31282781 183.6621673 -1.16163176 177.21438517 -7.63125801 170.76174641 C-15.87617759 162.53873978 -24.13099599 154.32595752 -32.3996383 146.1268037 C-38.23119293 140.34258598 -44.05112097 134.54682929 -49.86267936 128.74252194 C-53.32619548 125.28394393 -56.79451257 121.83053557 -60.27545547 118.38949013 C-63.55062017 115.15138014 -66.81104889 111.89911074 -70.06111908 108.63582039 C-71.24986979 107.4471233 -72.44368754 106.26346638 -73.64313126 105.08555984 C-83.80140271 95.09989403 -91.16751219 85.13995462 -91.3125 70.4375 C-91.3577454 59.36997154 -88.07241102 50.10064581 -80.23852539 42.02734375 C-79.19655235 40.99235459 -78.14935241 39.96260758 -77.09765625 38.9375 C-76.53807724 38.38312256 -75.97849823 37.82874512 -75.40196228 37.25756836 C-73.62688386 35.50016479 -71.84522901 33.74963947 -70.0625 32 C-68.28422116 30.24951055 -66.50749909 28.49751062 -64.73374939 26.74243164 C-63.63465957 25.65541691 -62.5329096 24.5710825 -61.42799377 23.48999023 C-58.05004847 20.15553635 -55.00808795 16.67146358 -52 13 C-49.4532308 10.51931463 -46.74184858 8.26189743 -44 6 C-43.03900391 5.18982422 -43.03900391 5.18982422 -42.05859375 4.36328125 C-29.96852678 -5.3331967 -13.81433979 -7.80893092 0 0 Z " fill="#3D39CD" transform="translate(1231,460)"/>
<path d="M0 0 C0.99193359 0.78117187 0.99193359 0.78117187 2.00390625 1.578125 C5.8438134 4.72966867 8.88147369 8.14287536 12 12 C15.33915694 15.51490204 18.88001685 18.62585583 22.64453125 21.66796875 C23.09183594 22.10753906 23.53914062 22.54710937 24 23 C24 23.66 24 24.32 24 25 C25.485 25.495 25.485 25.495 27 26 C28.6484375 27.70703125 28.6484375 27.70703125 30.375 29.8125 C33.03938718 32.95826806 35.71455838 35.49268929 39 38 C40.1469674 39.12877021 41.29124859 40.26038626 42.42261314 41.40479469 C44.29065392 43.2939372 46.17301334 45.16826386 48.0559845 47.04252625 C48.82854584 47.81219727 49.60110718 48.58186829 50.39707947 49.37486267 C51.23002029 50.20466141 52.06296112 51.03446014 52.92114258 51.8894043 C61.95358976 60.88918532 70.98099026 69.89400955 80.0054369 78.90181255 C85.4660161 84.35204863 90.92848002 89.80037143 96.39526367 95.24438477 C101.17435801 100.00358396 105.94996032 104.7662545 110.72135276 109.53317577 C113.24500564 112.05421775 115.77039969 114.57345904 118.29999733 117.08853722 C121.11402948 119.88654161 123.92026552 122.69228315 126.72583008 125.4987793 C127.56889206 126.33465073 128.41195404 127.17052216 129.28056335 128.03172302 C130.03902557 128.79293457 130.79748779 129.55414612 131.57893372 130.33842468 C132.24350492 131.0011523 132.90807611 131.66387991 133.59278584 132.34669018 C135 134 135 134 135 136 C135.53514221 136.21047974 136.07028442 136.42095947 136.62164307 136.63781738 C139.91871907 138.52618812 142.3975174 141.119388 145.05371094 143.79492188 C145.9470388 144.68299278 145.9470388 144.68299278 146.8584137 145.58900452 C148.82212334 147.54392353 150.77844134 149.50605322 152.734375 151.46875 C154.09600044 152.82902839 155.45792268 154.18900976 156.82012939 155.54870605 C159.67127498 158.39690429 162.51877419 161.24868616 165.36376953 164.10302734 C169.01797671 167.76865042 172.68111714 171.42519394 176.34701157 175.07912445 C179.15921181 177.88411412 181.96665136 180.69382951 184.77265167 183.50502014 C186.12204247 184.85574854 187.47292995 186.20498338 188.82530975 187.55271912 C190.70969948 189.43205448 192.58760003 191.31763822 194.46386719 193.20507812 C195.02797806 193.76514053 195.59208893 194.32520294 196.17329407 194.90223694 C200 198.771469 200 198.771469 200 201 C200.5887793 201.26425781 201.17755859 201.52851562 201.78417969 201.80078125 C204.08072584 203.04368944 205.60833166 204.35006481 207.453125 206.1875 C208.071875 206.80367187 208.690625 207.41984375 209.328125 208.0546875 C209.96234375 208.69664062 210.5965625 209.33859375 211.25 210 C211.8996875 210.64195312 212.549375 211.28390625 213.21875 211.9453125 C213.83234375 212.56148437 214.4459375 213.17765625 215.078125 213.8125 C215.63918945 214.37582031 216.20025391 214.93914062 216.77832031 215.51953125 C218 217 218 217 218 219 C218.56847656 219.24105469 219.13695312 219.48210937 219.72265625 219.73046875 C222.44788908 221.24968088 224.26690339 223.07418981 226.4375 225.3125 C227.17871094 226.07175781 227.91992188 226.83101562 228.68359375 227.61328125 C229.44800781 228.40089844 230.21242188 229.18851563 231 230 C234.17741379 233.18446161 237.36315239 236.36055176 240.54951477 239.53605652 C241.43146011 240.41511154 242.31340546 241.29416656 243.22207642 242.19985962 C243.69100437 242.66723667 244.15993233 243.13461372 244.64307022 243.61615372 C255.46378958 254.40141435 266.27869138 265.19249353 277.09040546 275.98678112 C283.3379269 282.22396114 289.58733264 288.45923189 295.84106445 294.69018555 C301.30574825 300.13497579 306.76694281 305.5832372 312.22392434 311.03574735 C315.11086971 313.92008115 317.99956162 316.8026164 320.89245033 319.68099022 C323.60784914 322.38287011 326.31857925 325.08934499 329.02571678 327.79950142 C330.02213966 328.79537183 331.02029138 329.78951576 332.02024841 330.78183746 C333.37988117 332.13159078 334.73284554 333.48805162 336.08540344 334.84489441 C337.22605995 335.98278553 337.22605995 335.98278553 338.38976002 337.14366436 C340 339 340 339 340 341 C340.86625 341.3403125 340.86625 341.3403125 341.75 341.6875 C344.59591381 343.34761639 345.99841921 345.39187957 348 348 C349.2065625 349.0828125 349.2065625 349.0828125 350.4375 350.1875 C358.85263453 359.42362327 359.69626563 369.99581231 359.17480469 381.91455078 C358.09031566 394.85268667 348.24954736 404.06036232 339.57421875 412.76171875 C338.78658646 413.55600784 337.99895416 414.35029694 337.18745422 415.1686554 C335.5319657 416.83420008 333.87382066 418.49710818 332.21313477 420.1574707 C329.69415959 422.68082882 327.1916409 425.21977378 324.68945312 427.75976562 C323.06869062 429.386396 321.44697692 431.01207929 319.82421875 432.63671875 C319.08846115 433.38684738 318.35270355 434.13697601 317.59465027 434.90983582 C308.94413177 443.48615931 300.05738371 448.95123003 287.6875 449.3125 C270.91052882 448.96697885 261.309591 439.69652671 250.19921875 428.20703125 C248.22098095 426.16854255 246.32965314 424.47144003 244.08203125 422.69921875 C243.05142578 421.85810547 243.05142578 421.85810547 242 421 C242 420.34 242 419.68 242 419 C241.44828125 418.78601562 240.8965625 418.57203125 240.328125 418.3515625 C237.21651675 416.54515905 235.09540311 414.04852928 232.75 411.375 C231.77739698 410.29044972 230.80343004 409.20712107 229.828125 408.125 C229.35052734 407.59390625 228.87292969 407.0628125 228.38085938 406.515625 C224.54945691 402.310295 220.74235233 398.16156822 216 395 C216 394.34 216 393.68 216 393 C215.15743652 392.64421875 215.15743652 392.64421875 214.29785156 392.28125 C211.47417342 390.70680643 209.52385158 388.78315455 207.234375 386.5 C206.34492187 385.613125 205.45546875 384.72625 204.5390625 383.8125 C203.61867188 382.884375 202.69828125 381.95625 201.75 381 C200.81414062 380.071875 199.87828125 379.14375 198.9140625 378.1875 C198.02976562 377.300625 197.14546875 376.41375 196.234375 375.5 C195.42194336 374.6853125 194.60951172 373.870625 193.77246094 373.03125 C192 371 192 371 192 369 C191.34 369 190.68 369 190 369 C190 368.34 190 367.68 190 367 C189.41246761 366.7374495 188.82493523 366.47489901 188.21959883 366.20439243 C185.88600881 364.93814642 184.35752365 363.60498046 182.48641872 361.72972107 C181.80452588 361.05119363 181.12263305 360.37266619 180.42007679 359.67357731 C179.67893054 358.92592326 178.9377843 358.17826921 178.17417908 357.40795898 C177.38066892 356.61545211 176.58715876 355.82294523 175.76960284 355.006423 C173.10326389 352.34103912 170.44414924 349.66856174 167.78491211 346.99609375 C165.87831907 345.08730026 163.97133063 343.17890983 162.06382751 341.27102661 C157.95293005 337.15776653 153.84565791 333.04091497 149.74076653 328.92166138 C143.80301067 322.963229 137.85926606 317.01079987 131.91394431 311.05991781 C122.26468056 301.40139685 112.61952601 291.73878365 102.97729492 282.07324219 C102.40016459 281.49471855 101.82303427 280.9161949 101.22841514 280.32014024 C100.65055572 279.74088529 100.07269629 279.16163033 99.47732598 278.5648222 C91.28336932 270.35109513 83.08844155 262.13833861 74.89233398 253.92675781 C74.31560395 253.34893692 73.73887391 252.77111603 73.1446672 252.17578542 C63.53546581 242.54857377 53.92424172 232.92338309 44.31197745 223.29922962 C38.38097597 217.36062996 32.45206276 211.41995889 26.52581991 205.47661042 C22.46728305 201.40652173 18.4070654 197.33811518 14.34551185 193.27103686 C12.00057416 190.92276168 9.65677821 188.5733656 7.31461334 186.22232437 C4.77830085 183.67660902 2.23896216 181.1339515 -0.30116272 178.59204102 C-1.04453969 177.84438697 -1.78791665 177.09673292 -2.55382019 176.32642269 C-3.57274783 175.30863153 -3.57274783 175.30863153 -4.61225986 174.27027893 C-5.19827837 173.68279656 -5.78429687 173.0953142 -6.3880735 172.49002934 C-8.1368691 170.79503221 -8.1368691 170.79503221 -11 169 C-11 168.34 -11 167.68 -11 167 C-11.53625 166.79375 -12.0725 166.5875 -12.625 166.375 C-15.91978009 164.46749574 -18.59363628 161.95180616 -21 159 C-21 158.34 -21 157.68 -21 157 C-21.66 157 -22.32 157 -23 157 C-24.48046875 155.4609375 -24.48046875 155.4609375 -26.1875 153.375 C-29.1100663 149.91212733 -32.15830902 147.02489092 -35.71484375 144.2265625 C-36.13894531 143.82179688 -36.56304688 143.41703125 -37 143 C-37 142.34 -37 141.68 -37 141 C-37.55636642 140.76665955 -38.11273285 140.53331909 -38.68595886 140.29290771 C-41.59767951 138.66606279 -43.64223148 136.65056116 -46.0246582 134.31347656 C-46.75481644 133.60062248 -46.75481644 133.60062248 -47.49972534 132.87336731 C-49.10582728 131.30151952 -50.7039826 129.72192007 -52.30078125 128.140625 C-52.85103659 127.59727257 -53.40129192 127.05392014 -53.96822166 126.49410248 C-56.88681434 123.61134221 -59.79920795 120.72247983 -62.70678711 117.82861328 C-65.68369246 114.86814768 -68.68090373 111.92920189 -71.68360615 108.9949379 C-74.0112294 106.71254403 -76.32267636 104.41425184 -78.63033104 102.11168671 C-79.7266753 101.02314507 -80.82879577 99.9403841 -81.93715858 98.86408234 C-90.3253335 90.70252602 -98.51364891 81.23985827 -99.82421875 69.08203125 C-99.82163687 67.65812703 -99.77672931 66.23360803 -99.6875 64.8125 C-99.66042969 64.05130859 -99.63335937 63.29011719 -99.60546875 62.50585938 C-98.62145389 44.4092111 -85.8624371 33.52702651 -73.75610352 21.49536133 C-71.69509413 19.44505469 -69.64497577 17.38429563 -67.59570312 15.32226562 C-47.68007915 -4.61710178 -26.23162773 -20.98530218 0 0 Z " fill="#3D39CD" transform="translate(549,1154)"/>
<path d="M0 0 C3.52059269 2.60790915 6.55856284 5.57649251 9.6203289 8.70031166 C10.29142693 9.3725779 10.96252495 10.04484413 11.65395927 10.73748207 C13.84262251 12.93326057 16.0205714 15.13934916 18.19869804 17.34557533 C19.72730765 18.88233084 21.25666249 20.41834539 22.786726 21.95365334 C26.79219565 25.97616039 30.78898787 30.00717308 34.78353691 34.04052162 C41.19906142 40.51549353 47.62757421 46.97756646 54.05648804 53.4392395 C56.30055883 55.69729195 58.54078901 57.95910038 60.78046989 60.22150612 C62.14627992 61.5973337 63.51216619 62.97308559 64.8781414 64.34874916 C65.50201241 64.98092857 66.12588341 65.61310799 66.76865959 66.26444435 C69.74197353 69.36278573 69.74197353 69.36278573 73.29635429 71.70104408 C73.29635429 72.36104408 73.29635429 73.02104408 73.29635429 73.70104408 C73.95635429 73.70104408 74.61635429 73.70104408 75.29635429 73.70104408 C76.74166679 75.20495033 76.74166679 75.20495033 78.42135429 77.26354408 C81.58948291 81.01861021 84.99065665 84.15370066 88.79244804 87.25573158 C89.28873711 87.73268471 89.78502617 88.20963783 90.29635429 88.70104408 C90.29635429 89.36104408 90.29635429 90.02104408 90.29635429 90.70104408 C90.95635429 90.70104408 91.61635429 90.70104408 92.29635429 90.70104408 C93.98367707 92.68364834 95.65001487 94.68427829 97.29635429 96.70104408 C97.95635429 97.03104408 98.61635429 97.36104408 99.29635429 97.70104408 C99.29635429 98.36104408 99.29635429 99.02104408 99.29635429 99.70104408 C99.95635429 99.70104408 100.61635429 99.70104408 101.29635429 99.70104408 C101.29635429 100.36104408 101.29635429 101.02104408 101.29635429 101.70104408 C101.88163241 101.96142149 102.46691053 102.2217989 103.06992435 102.49006653 C105.44578646 103.78232174 107.01091885 105.16665687 108.91923332 107.07668495 C109.97249054 108.12365044 109.97249054 108.12365044 111.04702568 109.19176674 C112.18715111 110.34032143 112.18715111 110.34032143 113.35030937 111.51207924 C114.15894936 112.31882088 114.96758934 113.12556252 115.80073357 113.95675087 C118.47736415 116.62967197 121.14671581 119.30973665 123.81588554 121.99010658 C125.67633512 123.85174852 127.53715479 125.71302067 129.39832878 127.57393837 C133.30305862 131.47960466 137.20389907 135.38912147 141.1022625 139.30114174 C145.59319786 143.80775285 150.08928777 148.30916675 154.58843499 152.80757868 C158.92962503 157.14815528 163.2678772 161.49165375 167.60467911 165.83661461 C169.44319772 167.67830526 171.28231368 169.51939982 173.12204742 171.35987663 C175.70195582 173.94196718 178.27853619 176.52733356 180.85421562 179.11364174 C181.98523201 180.24397835 181.98523201 180.24397835 183.13909721 181.39715004 C187.16027869 185.44246539 191.0128876 189.57094347 194.70789433 193.91725159 C196.35743143 195.76963186 198.10299859 197.45295243 199.92135429 199.13854408 C206.83020673 205.92291269 209.42219261 213.26344685 209.60885429 222.76354408 C209.63086859 232.84242241 206.79787235 240.40763085 200.66354179 248.33776283 C199.29635429 249.70104408 199.29635429 249.70104408 197.29635429 249.70104408 C197.06947929 250.25276283 196.84260429 250.80448158 196.60885429 251.37291908 C194.90909503 254.38796825 192.74830614 256.51334778 190.29635429 258.95104408 C189.40947929 259.84307533 188.52260429 260.73510658 187.60885429 261.65416908 C185.29635429 263.70104408 185.29635429 263.70104408 183.29635429 263.70104408 C183.29635429 264.36104408 183.29635429 265.02104408 183.29635429 265.70104408 C181.61666679 267.32213783 181.61666679 267.32213783 179.42135429 269.13854408 C176.83441708 271.28505292 175.18451055 272.8688097 173.29635429 275.70104408 C172.63635429 275.70104408 171.97635429 275.70104408 171.29635429 275.70104408 C170.96635429 276.69104408 170.63635429 277.68104408 170.29635429 278.70104408 C168.89170969 279.87158125 167.48306891 281.03781129 166.05026054 282.17370033 C163.39216696 284.48843216 161.18278968 287.14787675 158.90963554 289.83385658 C158.37725273 290.45002846 157.84486992 291.06620033 157.29635429 291.70104408 C156.81553398 292.29659096 156.33471367 292.89213783 155.83932304 293.50573158 C154.29635429 294.70104408 154.29635429 294.70104408 152.44552273 294.49828362 C149.75917751 293.50177698 148.39079425 292.16808387 146.36669064 290.14052391 C145.59197951 289.37178593 144.81726839 288.60304796 144.01908118 287.81101489 C143.17424357 286.95743876 142.32940596 286.10386262 141.45896721 285.22442055 C140.55661227 284.32462888 139.65425732 283.42483721 138.72455829 282.49777913 C136.21671553 279.99665712 133.71834429 277.48625533 131.22138631 274.97427297 C128.52804912 272.26800166 125.82606972 269.57038371 123.12512016 266.87171364 C118.44448126 262.19264941 113.76937611 257.50811407 109.09796143 252.81984138 C102.33841112 246.03591495 95.57059689 239.26028275 88.80073368 232.48664966 C77.81057025 221.48991619 66.82712482 210.48649805 55.84786797 199.47887611 C45.1938109 188.7973229 34.53663945 178.11889309 23.87521172 167.44469643 C23.2189636 166.78766014 22.56271549 166.13062386 21.88658107 165.45367739 C18.59369147 162.156872 15.30073961 158.8601288 12.00775635 155.56341696 C-10.70186777 132.82795187 -33.40485021 110.0858703 -56.10103035 87.33698463 C-56.58557918 86.85131331 -57.07012801 86.36564198 -57.56936014 85.86525334 C-59.8105043 83.61890554 -62.05160462 81.37251402 -64.29262918 79.1260469 C-68.09411189 75.31551628 -71.89647445 71.50589142 -75.70364571 67.70104408 C-81.03697904 62.36771075 -86.37031237 57.03437742 -91.70364571 51.70104408 C-83.93772242 42.36293254 -75.23188999 33.89071517 -66.68411446 25.27648354 C-64.61619448 23.19076818 -62.55712988 21.09687846 -60.50540352 18.99523354 C-58.00274203 16.43180857 -55.48513653 13.88395682 -52.9567318 11.34592819 C-51.55121445 9.92790074 -50.16047947 8.4952688 -48.77026558 7.06223488 C-34.08386883 -7.57789268 -17.52779486 -11.9438389 0 0 Z " fill="#3D39CD" transform="translate(1415.7036457061768,435.2989559173584)"/>
<path d="M0 0 C2.75074686 1.12031078 4.27748466 2.64762034 6.37744498 4.75085503 C7.22490751 5.59234441 8.07237004 6.43383379 8.94551325 7.30082285 C9.87158042 8.23562855 10.7976476 9.17043425 11.75177741 10.13356739 C12.74866643 11.12914867 13.74621426 12.12407066 14.74436474 13.11838722 C17.48989006 15.85718949 20.22594843 18.60528368 22.96059036 21.35494703 C25.90946017 24.3167467 28.86696818 27.26989792 31.82344794 30.22409779 C36.94608515 35.34516033 42.06319169 40.47169629 47.17660499 45.60196835 C54.56978768 53.01951027 61.97121967 60.42877516 69.37470499 67.83603232 C81.38552241 79.85341906 93.38962213 91.87749298 105.38953376 103.90576893 C117.04780667 115.59156998 128.70921967 127.27422266 140.37488532 138.95264393 C141.09370036 139.67224714 141.8125154 140.39185035 142.55311272 141.13325972 C146.15913975 144.74320181 149.76522877 148.35308197 153.37134862 151.96293133 C183.29767181 181.92036538 213.21310935 211.88865179 243.12146735 241.86402088 C241.47129404 245.35465434 239.5809892 247.67895323 236.86219001 250.44556385 C235.98011878 251.34685017 235.09804755 252.24813648 234.18924689 253.17673451 C233.22190257 254.1537819 232.25398165 255.13025872 231.28552985 256.10620838 C230.79484393 256.60254906 230.30415801 257.09888973 229.79860282 257.61027104 C227.19667634 260.24215307 224.58906245 262.86823806 221.97644782 265.48950917 C219.3023288 268.17453142 216.64723482 270.87754533 213.99638534 273.58551556 C211.93542578 275.68409015 209.86081214 277.76877209 207.78248954 279.8501392 C206.7992645 280.83934749 205.82095579 281.83347155 204.84810996 282.83288914 C196.58918507 291.30089904 187.01568389 298.81765402 174.72742438 299.15723377 C162.50715676 299.26915137 154.47670505 296.92828203 145.47302985 288.23902088 C144.69701423 287.45527088 143.9209986 286.67152088 143.12146735 285.86402088 C142.01931891 284.78120838 142.01931891 284.78120838 140.89490485 283.67652088 C138.95238601 281.7558281 137.03515727 279.81336962 135.12146735 277.86402088 C133.97629365 276.71818732 132.83099267 275.5724807 131.68508506 274.4273811 C128.35615188 271.09899612 125.03223107 267.76560054 121.70691657 264.43360096 C113.21586583 255.92621044 104.72228849 247.42134793 96.22722411 238.91796547 C91.08889058 233.77446406 85.95150911 228.63001819 80.81629157 223.48340565 C76.32513812 218.98229186 71.83223532 214.48293293 67.3372153 209.98568034 C64.96107824 207.6082401 62.58582854 205.22992833 60.21268058 202.84950405 C57.56983881 200.19943669 54.92391817 197.55248135 52.27722907 194.90625721 C51.49170661 194.11713948 50.70618415 193.32802174 49.89685798 192.51499134 C49.17634254 191.79585057 48.45582709 191.07670979 47.71347785 190.33577687 C47.08854375 189.70992097 46.46360965 189.08406508 45.81973815 188.43924385 C44.00210706 186.66950962 44.00210706 186.66950962 41.12146735 184.86402088 C41.12146735 184.20402088 41.12146735 183.54402088 41.12146735 182.86402088 C40.13146735 182.53402088 39.14146735 182.20402088 38.12146735 181.86402088 C36.59387946 180.31739002 36.59387946 180.31739002 34.9613111 178.33667713 C31.08045286 173.76502817 26.93405026 169.52865105 22.68396735 165.30152088 C21.97176032 164.58544667 21.25955329 163.86937245 20.52576423 163.13159901 C16.4523404 159.06557468 12.27616609 155.18779154 7.91809821 151.42920643 C5.56996671 149.38356557 3.33283881 147.24369641 1.12146735 145.05152088 C0.35834235 144.30257557 -0.40478265 143.55363026 -1.19103265 142.78198963 C-2.87853265 140.86402088 -2.87853265 140.86402088 -2.87853265 138.86402088 C-3.53853265 138.86402088 -4.19853265 138.86402088 -4.87853265 138.86402088 C-6.32384515 137.36011463 -6.32384515 137.36011463 -8.00353265 135.30152088 C-11.17166127 131.54645475 -14.57283501 128.41136431 -18.3746264 125.30933338 C-18.87091546 124.83238026 -19.36720452 124.35542713 -19.87853265 123.86402088 C-19.87853265 123.20402088 -19.87853265 122.54402088 -19.87853265 121.86402088 C-20.86853265 121.53402088 -21.85853265 121.20402088 -22.87853265 120.86402088 C-22.87853265 120.20402088 -22.87853265 119.54402088 -22.87853265 118.86402088 C-23.68484124 118.5488451 -23.68484124 118.5488451 -24.5074389 118.22730213 C-27.78191553 116.34461293 -30.21024855 113.74188724 -32.81603265 111.05152088 C-33.58463616 110.26938221 -33.58463616 110.26938221 -34.36876702 109.47144276 C-35.38852752 108.43354166 -36.40605137 107.39343798 -37.42125726 106.35108143 C-38.76793962 104.97687432 -40.13489605 103.62261419 -41.50353265 102.27027088 C-50.9284538 92.72133761 -56.19680272 84.3211265 -56.37853265 70.80152088 C-56.3153962 64.09533207 -55.64342784 58.58108396 -51.87853265 52.86402088 C-51.31521234 51.9423412 -50.75189202 51.02066151 -50.1715014 50.07105213 C-47.42855765 46.23466914 -44.3132412 43.08134016 -40.94103265 39.80152088 C-40.33323968 39.20275135 -39.72544671 38.60398182 -39.09923577 37.98706776 C-37.90485708 36.81072715 -36.70860566 35.63628456 -35.51036859 34.4638744 C-33.28322244 32.28037819 -31.08224257 30.07114741 -28.87853265 27.86402088 C-27.70444611 26.70086402 -26.52993162 25.53813904 -25.35509515 24.37573963 C-18.97226092 18.04553378 -12.69487118 11.72561445 -6.87853265 4.86402088 C-2.58219502 -0.18691429 -2.58219502 -0.18691429 0 0 Z " fill="#3D3ACD" transform="translate(479.87853264808655,1328.135979115963)"/>
<path d="M0 0 C4.05311982 2.22961405 7.03430863 5.27937054 10.19140625 8.62109375 C12.04407829 10.63231713 12.04407829 10.63231713 14.625 12.5625 C17.28806981 14.73500432 19.33034743 17.13597212 21.52734375 19.765625 C24.22104838 22.93805168 27.06661265 25.78767808 30.375 28.3125 C37.37763675 34.14803062 44.92048144 42.4257372 47 51.5 C47.51085347 57.11938817 46.42081619 60.55750028 44 65.5 C38.20276465 60.72311824 32.89969623 55.51946727 27.6150074 50.1901722 C26.0646649 48.62688954 24.51106587 47.0669068 22.95664978 45.50767517 C19.09824398 41.63600636 15.24532854 37.75888896 11.39227295 33.88189697 C8.12758119 30.59734452 4.86075949 27.31493774 1.59118462 24.0352459 C0.07375014 22.51141288 -1.44059761 20.98455988 -2.95481873 19.45753479 C-7.67455504 14.71555409 -12.41442913 10.12972682 -17.63795471 5.9384613 C-19 4.5 -19 4.5 -19 1.5 C-12.52346207 -1.73826896 -6.81915569 -3.00256366 0 0 Z " fill="#413EC8" transform="translate(1538,470.5)"/>
<path d="M0 0 C4.04489386 1.61669215 6.76642316 4.48453857 9.77832031 7.51953125 C10.34461151 8.08231781 10.91090271 8.64510437 11.49435425 9.22494507 C13.36066702 11.08247044 15.21958718 12.94719782 17.078125 14.8125 C18.37248975 16.10551762 19.66715128 17.39823822 20.96209717 18.69067383 C23.67200778 21.39763755 26.37827154 24.10818211 29.08203125 26.82128906 C32.55463671 30.30531153 36.03617321 33.78024903 39.52046585 37.25257874 C42.1936971 39.91859914 44.86216643 42.58934468 47.52919769 45.26156616 C48.81160248 46.54530841 50.09550367 47.82755756 51.38089752 49.10830688 C53.17189072 50.89424516 54.95638758 52.68642648 56.73925781 54.48046875 C57.27531647 55.01247894 57.81137512 55.54448914 58.36367798 56.09262085 C62 59.77146851 62 59.77146851 62 62 C57.30041721 64.50644416 52.1899969 64.85653096 47 64 C40.27288023 61.16171575 35.82875483 57.40555099 30.73828125 52.234375 C29.98459763 51.48214661 29.230914 50.72991821 28.45439148 49.95489502 C26.87059522 48.36944644 25.29171141 46.77907684 23.7175293 45.18408203 C21.32146635 42.75907466 18.90730704 40.35326601 16.49023438 37.94921875 C14.94680166 36.39954722 13.40444729 34.84880079 11.86328125 33.296875 C11.14860184 32.58513123 10.43392242 31.87338745 9.69758606 31.14007568 C2.80581932 24.11871243 -1.85569998 17.94680064 -2.1875 7.9375 C-2.02341379 4.49168968 -1.86607724 2.79911585 0 0 Z " fill="#4541C9" transform="translate(467,1523)"/>
<path d="M0 0 C1.125 1.75 1.125 1.75 2 4 C1.125 6.25 1.125 6.25 0 8 C-1.125 2.25 -1.125 2.25 0 0 Z " fill="#F1F0EA" transform="translate(2044,210)"/>
<path d="M0 0 C0.66 1.32 1.32 2.64 2 4 C1.01 4.33 0.02 4.66 -1 5 C-0.67 3.35 -0.34 1.7 0 0 Z " fill="#E9EAE6" transform="translate(2024,153)"/>
<path d="M0 0 C0.66 0 1.32 0 2 0 C2 0.99 2 1.98 2 3 C1.34 3 0.68 3 0 3 C0 2.01 0 1.02 0 0 Z " fill="#EDECE8" transform="translate(2021,151)"/>
<path d="M0 0 C0.99 0 1.98 0 3 0 C3.33 0.99 3.66 1.98 4 3 C3.34 3 2.68 3 2 3 C2 2.34 2 1.68 2 1 C1.34 0.67 0.68 0.34 0 0 Z " fill="#EAECE9" transform="translate(1987,102)"/>
<path d="M0 0 C0.99 0.33 1.98 0.66 3 1 C2.01 1 1.02 1 0 1 C0 0.67 0 0.34 0 0 Z " fill="#EFEFE9" transform="translate(1985,96)"/>
<path d="M0 0 C0.66 0.33 1.32 0.66 2 1 C1.01 1 0.02 1 -1 1 C-0.67 0.67 -0.34 0.34 0 0 Z " fill="#E7E8E7" transform="translate(158,23)"/>
<path d="M0 0 C0.33 0.66 0.66 1.32 1 2 C0.34 1.67 -0.32 1.34 -1 1 C-0.67 0.67 -0.34 0.34 0 0 Z " fill="#F4F7E9" transform="translate(1942,2008)"/>
<path d="M0 0 C0.66 0 1.32 0 2 0 C1.67 0.66 1.34 1.32 1 2 C0.67 1.34 0.34 0.68 0 0 Z " fill="#EFF1EB" transform="translate(2033,180)"/>
<path d="M0 0 C0.66 0.66 1.32 1.32 2 2 C1.34 2 0.68 2 0 2 C0 1.34 0 0.68 0 0 Z " fill="#EDEEEB" transform="translate(1895,27)"/>
<path d="M0 0 C2 1 2 1 2 1 Z " fill="#E8EAEA" transform="translate(156,2032)"/>
<path d="M0 0 C2 1 2 1 2 1 Z " fill="#ECECF1" transform="translate(125,2016)"/>
<path d="" fill="#EFF0EA" transform="translate(0,0)"/>
<path d="M0 0 C2 1 2 1 2 1 Z " fill="#EDEDEB" transform="translate(2008,129)"/>
<path d="M0 0 C2 1 2 1 2 1 Z " fill="#F2F3ED" transform="translate(1998,116)"/>
<path d="M0 0 C2 1 2 1 2 1 Z " fill="#EDEEE9" transform="translate(62,98)"/>
<path d="M0 0 C2 1 2 1 2 1 Z " fill="#F6F6EB" transform="translate(1983,93)"/>
<path d="M0 0 C2 1 2 1 2 1 Z " fill="#F7F8EA" transform="translate(94,61)"/>
<path d="" fill="#EEEFE8" transform="translate(0,0)"/>
<path d="M0 0 C2 1 2 1 2 1 Z " fill="#ECECE6" transform="translate(1943,57)"/>
<path d="M0 0 C2 1 2 1 2 1 Z " fill="#EBEDE7" transform="translate(1920,41)"/>
<path d="M0 0 C2 1 2 1 2 1 Z " fill="#E8E7E5" transform="translate(155,23)"/>
<path d="M0 0 C2 1 2 1 2 1 Z " fill="#ECEDEB" transform="translate(161,22)"/>
<path d="" fill="#EFEFE8" transform="translate(0,0)"/>
<path d="" fill="#EDEDF5" transform="translate(0,0)"/>
<path d="" fill="#ECEDF1" transform="translate(0,0)"/>
<path d="" fill="#EEEDF2" transform="translate(0,0)"/>
<path d="" fill="#F5F7EA" transform="translate(0,0)"/>
<path d="" fill="#EDECE8" transform="translate(0,0)"/>
<path d="" fill="#ECECEA" transform="translate(0,0)"/>
<path d="" fill="#E9E9E7" transform="translate(0,0)"/>
<path d="" fill="#F2F2EA" transform="translate(0,0)"/>
<path d="" fill="#EAEBE6" transform="translate(0,0)"/>
<path d="" fill="#EBECE7" transform="translate(0,0)"/>
<path d="" fill="#F4F6EB" transform="translate(0,0)"/>
<path d="" fill="#F6F8EB" transform="translate(0,0)"/>
<path d="" fill="#ECEEEB" transform="translate(0,0)"/>
<path d="" fill="#EAEDF6" transform="translate(0,0)"/>
<path d="" fill="#EFF0E8" transform="translate(0,0)"/>
<path d="" fill="#F2F4E7" transform="translate(0,0)"/>
<path d="" fill="#EDEEE9" transform="translate(0,0)"/>
<path d="" fill="#EDEDF5" transform="translate(0,0)"/>
<path d="" fill="#E6E6EE" transform="translate(0,0)"/>
<path d="" fill="#EDEDED" transform="translate(0,0)"/>
<path d="" fill="#EBECEE" transform="translate(0,0)"/>
<path d="" fill="#E9EAEE" transform="translate(0,0)"/>
<path d="" fill="#F6F7E9" transform="translate(0,0)"/>
<path d="" fill="#F3F3EB" transform="translate(0,0)"/>
<path d="" fill="#EAE9EE" transform="translate(0,0)"/>
<path d="" fill="#F6F6EA" transform="translate(0,0)"/>
<path d="" fill="#F2F2E8" transform="translate(0,0)"/>
<path d="" fill="#E7E8EC" transform="translate(0,0)"/>
<path d="" fill="#EDF1F2" transform="translate(0,0)"/>
<path d="" fill="#ECECEC" transform="translate(0,0)"/>
<path d="" fill="#ECECEC" transform="translate(0,0)"/>
<path d="" fill="#ECEEFD" transform="translate(0,0)"/>
<path d="" fill="#EEECF9" transform="translate(0,0)"/>
<path d="" fill="#EFF2EB" transform="translate(0,0)"/>
<path d="" fill="#EEEFEA" transform="translate(0,0)"/>
<path d="" fill="#EDEBF6" transform="translate(0,0)"/>
<path d="" fill="#F0EFEB" transform="translate(0,0)"/>
<path d="" fill="#F0EFEB" transform="translate(0,0)"/>
<path d="" fill="#F2F2EA" transform="translate(0,0)"/>
<path d="" fill="#EDEDEB" transform="translate(0,0)"/>
<path d="" fill="#EEEFE9" transform="translate(0,0)"/>
<path d="" fill="#EBEBE9" transform="translate(0,0)"/>
<path d="" fill="#F0F1EC" transform="translate(0,0)"/>
<path d="" fill="#F1F0EB" transform="translate(0,0)"/>
<path d="" fill="#F1F2EC" transform="translate(0,0)"/>
<path d="" fill="#EDEEF3" transform="translate(0,0)"/>
<path d="" fill="#F1F2ED" transform="translate(0,0)"/>
<path d="" fill="#EFF0EB" transform="translate(0,0)"/>
<path d="" fill="#ECEEEB" transform="translate(0,0)"/>
<path d="" fill="#E8EAE9" transform="translate(0,0)"/>
<path d="" fill="#EDEEE9" transform="translate(0,0)"/>
<path d="" fill="#EDF0F7" transform="translate(0,0)"/>
<path d="" fill="#EBEAE5" transform="translate(0,0)"/>
<path d="" fill="#E9E9E7" transform="translate(0,0)"/>
<path d="" fill="#EEF0ED" transform="translate(0,0)"/>
<path d="" fill="#EEEDF2" transform="translate(0,0)"/>
<path d="" fill="#F3F4EC" transform="translate(0,0)"/>
<path d="" fill="#EEEEEC" transform="translate(0,0)"/>
<path d="" fill="#EFEEE9" transform="translate(0,0)"/>
<path d="" fill="#F3F4EC" transform="translate(0,0)"/>
<path d="" fill="#F6F6EC" transform="translate(0,0)"/>
<path d="" fill="#F1F2EC" transform="translate(0,0)"/>
<path d="" fill="#ECEEED" transform="translate(0,0)"/>
<path d="" fill="#EEF0EB" transform="translate(0,0)"/>
<path d="" fill="#F3F4EC" transform="translate(0,0)"/>
<path d="" fill="#F0F1E9" transform="translate(0,0)"/>
<path d="" fill="#EBEBE9" transform="translate(0,0)"/>
<path d="" fill="#F1F2EC" transform="translate(0,0)"/>
<path d="" fill="#EDEEF3" transform="translate(0,0)"/>
<path d="" fill="#F1F2EC" transform="translate(0,0)"/>
<path d="" fill="#F3F2ED" transform="translate(0,0)"/>
<path d="" fill="#F1F1E7" transform="translate(0,0)"/>
<path d="" fill="#EDEDF5" transform="translate(0,0)"/>
<path d="" fill="#F1F2EC" transform="translate(0,0)"/>
<path d="" fill="#EDEEE9" transform="translate(0,0)"/>
<path d="" fill="#EFF0EB" transform="translate(0,0)"/>
<path d="" fill="#EDEFEA" transform="translate(0,0)"/>
<path d="" fill="#EDEFEA" transform="translate(0,0)"/>
<path d="" fill="#ECEDF2" transform="translate(0,0)"/>
<path d="" fill="#F2F3ED" transform="translate(0,0)"/>
<path d="" fill="#EFEFED" transform="translate(0,0)"/>
<path d="" fill="#F1F2EC" transform="translate(0,0)"/>
<path d="" fill="#EDEEE9" transform="translate(0,0)"/>
<path d="" fill="#EDEDEB" transform="translate(0,0)"/>
<path d="" fill="#ECEBF1" transform="translate(0,0)"/>
<path d="" fill="#F2F3ED" transform="translate(0,0)"/>
<path d="" fill="#ECECEC" transform="translate(0,0)"/>
<path d="" fill="#EEEEEC" transform="translate(0,0)"/>
<path d="" fill="#EBEBE9" transform="translate(0,0)"/>
<path d="" fill="#EEEEEC" transform="translate(0,0)"/>
<path d="" fill="#EDEFEC" transform="translate(0,0)"/>
<path d="" fill="#F4F4EC" transform="translate(0,0)"/>
<path d="" fill="#EFEEEA" transform="translate(0,0)"/>
</svg>
